<svg width="278" height="167" viewBox="0 0 278 167" fill="none" xmlns="http://www.w3.org/2000/svg">
<path d="M222.225 167L277.975 83.5L222.225 0H143.378V167H222.225Z" fill="#007ACC"/>
<path d="M143.378 167V0H0.316605L57.5413 83.5L0.316605 167H143.378Z" fill="#007ACC"/>
<g clip-path="url(#clip0_1_387)">
<path d="M173 96.81V101.333C173 104.047 171.73 106.367 169.967 108.19C168.223 109.997 165.857 111.47 163.193 112.637C157.853 114.97 150.713 116.333 143 116.333C135.287 116.333 128.147 114.973 122.807 112.637C120.143 111.47 117.777 109.997 116.033 108.19C114.417 106.523 113.217 104.43 113.027 102.003L113 101.333V96.81C114.55 97.69 116.207 98.47 117.98 99.1267C124.747 101.63 133.597 103.027 143 103.027C152.403 103.027 161.253 101.63 168.02 99.1267C169.35 98.6333 170.613 98.0733 171.817 97.45L173 96.81ZM113 78.4767C114.55 79.3567 116.207 80.1367 117.98 80.7933C124.747 83.2967 133.597 84.6933 143 84.6933C152.403 84.6933 161.253 83.2967 168.02 80.7933C169.74 80.1583 171.406 79.3835 173 78.4767V88.8267C170.787 90.5352 168.328 91.8995 165.707 92.8733C159.857 95.04 151.827 96.3633 143 96.3633C134.177 96.3633 126.147 95.04 120.293 92.8733C117.672 91.8995 115.213 90.5352 113 88.8267V78.4767ZM143 53C150.713 53 157.853 54.36 163.193 56.6967C165.857 57.8633 168.223 59.3367 169.967 61.1433C171.583 62.81 172.783 64.9033 172.973 67.33L173 68V70.4933C170.787 72.2019 168.328 73.5662 165.707 74.54C159.857 76.7067 151.827 78.03 143 78.03C134.177 78.03 126.147 76.7067 120.293 74.54C118.039 73.704 115.905 72.5766 113.943 71.1867L113 70.4933V68C113 65.2867 114.27 62.9667 116.033 61.1433C117.777 59.3367 120.143 57.8633 122.807 56.6967C128.147 54.3633 135.287 53 143 53Z" fill="#F1F1F1"/>
</g>
<defs>
<clipPath id="clip0_1_387">
<rect width="80" height="80" fill="white" transform="translate(103 43)"/>
</clipPath>
</defs>
</svg>
