<svg width="167" height="278" viewBox="0 0 167 278" fill="none" xmlns="http://www.w3.org/2000/svg">
<path d="M0 221.908L83.5 277.658L167 221.908V143.062L0 143.062L0 221.908Z" fill="#007ACC"/>
<path d="M0 145L167 145L167 1.54972e-06L83.5 58L0 1.54972e-06L0 145Z" fill="#007ACC"/>
<g clip-path="url(#clip0_21_818)">
<path d="M112.333 154.827V159.35C112.333 162.063 111.063 164.383 109.3 166.207C107.557 168.013 105.19 169.487 102.527 170.653C97.1866 172.987 90.0466 174.35 82.3333 174.35C74.6199 174.35 67.4799 172.99 62.1399 170.653C59.4766 169.487 57.1099 168.013 55.3666 166.207C53.7499 164.54 52.5499 162.447 52.3599 160.02L52.3333 159.35V154.827C53.8833 155.707 55.5399 156.487 57.3133 157.143C64.0799 159.647 72.9299 161.043 82.3333 161.043C91.7366 161.043 100.587 159.647 107.353 157.143C108.683 156.65 109.947 156.09 111.15 155.467L112.333 154.827ZM52.3333 136.493C53.8833 137.373 55.5399 138.153 57.3133 138.81C64.0799 141.313 72.9299 142.71 82.3333 142.71C91.7366 142.71 100.587 141.313 107.353 138.81C109.074 138.175 110.739 137.4 112.333 136.493V146.843C110.12 148.552 107.661 149.916 105.04 150.89C99.1899 153.057 91.1599 154.38 82.3333 154.38C73.5099 154.38 65.4799 153.057 59.6266 150.89C57.0055 149.916 54.5467 148.552 52.3333 146.843V136.493ZM82.3333 111.017C90.0466 111.017 97.1866 112.377 102.527 114.713C105.19 115.88 107.557 117.353 109.3 119.16C110.917 120.827 112.117 122.92 112.307 125.347L112.333 126.017V128.51C110.12 130.219 107.661 131.583 105.04 132.557C99.1899 134.723 91.1599 136.047 82.3333 136.047C73.5099 136.047 65.4799 134.723 59.6266 132.557C57.3727 131.721 55.2379 130.593 53.2766 129.203L52.3333 128.51V126.017C52.3333 123.303 53.6033 120.983 55.3666 119.16C57.1099 117.353 59.4766 115.88 62.1399 114.713C67.4799 112.38 74.6199 111.017 82.3333 111.017Z" fill="#F1F1F1"/>
</g>
<defs>
<clipPath id="clip0_21_818">
<rect width="80" height="80" fill="white" transform="matrix(0 1 -1 0 124 102.683)"/>
</clipPath>
</defs>
</svg>
