<svg width="659" height="449" viewBox="0 0 659 449" fill="none" xmlns="http://www.w3.org/2000/svg">
<g clip-path="url(#clip0_1_205)">
<path d="M149.679 11.668C152.902 11.668 155.515 9.05601 155.515 5.83398C155.515 2.61196 152.902 0 149.679 0C146.456 0 143.844 2.61196 143.844 5.83398C143.844 9.05601 146.456 11.668 149.679 11.668Z" fill="#B4B4B4"/>
<path d="M179.219 11.668C182.442 11.668 185.055 9.05601 185.055 5.83398C185.055 2.61196 182.442 0 179.219 0C175.996 0 173.383 2.61196 173.383 5.83398C173.383 9.05601 175.996 11.668 179.219 11.668Z" fill="#B4B4B4"/>
<path d="M208.759 11.668C211.982 11.668 214.595 9.05601 214.595 5.83398C214.595 2.61196 211.982 0 208.759 0C205.536 0 202.923 2.61196 202.923 5.83398C202.923 9.05601 205.536 11.668 208.759 11.668Z" fill="#B4B4B4"/>
<path d="M238.299 11.668C241.522 11.668 244.134 9.05601 244.134 5.83398C244.134 2.61196 241.522 0 238.299 0C235.076 0 232.463 2.61196 232.463 5.83398C232.463 9.05601 235.076 11.668 238.299 11.668Z" fill="#B4B4B4"/>
<path d="M267.839 11.668C271.061 11.668 273.674 9.05601 273.674 5.83398C273.674 2.61196 271.061 0 267.839 0C264.616 0 262.003 2.61196 262.003 5.83398C262.003 9.05601 264.616 11.668 267.839 11.668Z" fill="#B4B4B4"/>
<path d="M149.679 41.5701C152.902 41.5701 155.515 38.9581 155.515 35.7361C155.515 32.5141 152.902 29.9021 149.679 29.9021C146.456 29.9021 143.844 32.5141 143.844 35.7361C143.844 38.9581 146.456 41.5701 149.679 41.5701Z" fill="#B4B4B4"/>
<path d="M179.219 41.5701C182.442 41.5701 185.055 38.9581 185.055 35.7361C185.055 32.5141 182.442 29.9021 179.219 29.9021C175.996 29.9021 173.383 32.5141 173.383 35.7361C173.383 38.9581 175.996 41.5701 179.219 41.5701Z" fill="#B4B4B4"/>
<path d="M208.759 41.5701C211.982 41.5701 214.595 38.9581 214.595 35.7361C214.595 32.5141 211.982 29.9021 208.759 29.9021C205.536 29.9021 202.923 32.5141 202.923 35.7361C202.923 38.9581 205.536 41.5701 208.759 41.5701Z" fill="#B4B4B4"/>
<path d="M238.299 41.5701C241.522 41.5701 244.134 38.9581 244.134 35.7361C244.134 32.5141 241.522 29.9021 238.299 29.9021C235.076 29.9021 232.463 32.5141 232.463 35.7361C232.463 38.9581 235.076 41.5701 238.299 41.5701Z" fill="#007ACC"/>
<path d="M267.839 41.5701C271.061 41.5701 273.674 38.9581 273.674 35.7361C273.674 32.5141 271.061 29.9021 267.839 29.9021C264.616 29.9021 262.003 32.5141 262.003 35.7361C262.003 38.9581 264.616 41.5701 267.839 41.5701Z" fill="#B4B4B4"/>
<path d="M326.918 41.5701C330.141 41.5701 332.754 38.9581 332.754 35.7361C332.754 32.5141 330.141 29.9021 326.918 29.9021C323.695 29.9021 321.083 32.5141 321.083 35.7361C321.083 38.9581 323.695 41.5701 326.918 41.5701Z" fill="#B4B4B4"/>
<path d="M149.679 71.4722C152.902 71.4722 155.515 68.8603 155.515 65.6382C155.515 62.4162 152.902 59.8043 149.679 59.8043C146.456 59.8043 143.844 62.4162 143.844 65.6382C143.844 68.8603 146.456 71.4722 149.679 71.4722Z" fill="#B4B4B4"/>
<path d="M179.219 71.4722C182.442 71.4722 185.055 68.8603 185.055 65.6382C185.055 62.4162 182.442 59.8043 179.219 59.8043C175.996 59.8043 173.383 62.4162 173.383 65.6382C173.383 68.8603 175.996 71.4722 179.219 71.4722Z" fill="#B4B4B4"/>
<path d="M208.759 71.4722C211.982 71.4722 214.595 68.8603 214.595 65.6382C214.595 62.4162 211.982 59.8043 208.759 59.8043C205.536 59.8043 202.923 62.4162 202.923 65.6382C202.923 68.8603 205.536 71.4722 208.759 71.4722Z" fill="#B4B4B4"/>
<path d="M238.299 71.4722C241.522 71.4722 244.134 68.8603 244.134 65.6382C244.134 62.4162 241.522 59.8043 238.299 59.8043C235.076 59.8043 232.463 62.4162 232.463 65.6382C232.463 68.8603 235.076 71.4722 238.299 71.4722Z" fill="#B4B4B4"/>
<path d="M267.839 71.4722C271.061 71.4722 273.674 68.8603 273.674 65.6382C273.674 62.4162 271.061 59.8043 267.839 59.8043C264.616 59.8043 262.003 62.4162 262.003 65.6382C262.003 68.8603 264.616 71.4722 267.839 71.4722Z" fill="#B4B4B4"/>
<path d="M149.679 101.374C152.902 101.374 155.515 98.7624 155.515 95.5404C155.515 92.3184 152.902 89.7064 149.679 89.7064C146.456 89.7064 143.844 92.3184 143.844 95.5404C143.844 98.7624 146.456 101.374 149.679 101.374Z" fill="#B4B4B4"/>
<path d="M179.219 101.374C182.442 101.374 185.055 98.7624 185.055 95.5404C185.055 92.3184 182.442 89.7064 179.219 89.7064C175.996 89.7064 173.383 92.3184 173.383 95.5404C173.383 98.7624 175.996 101.374 179.219 101.374Z" fill="#B4B4B4"/>
<path d="M208.759 101.374C211.982 101.374 214.595 98.7624 214.595 95.5404C214.595 92.3184 211.982 89.7064 208.759 89.7064C205.536 89.7064 202.923 92.3184 202.923 95.5404C202.923 98.7624 205.536 101.374 208.759 101.374Z" fill="#B4B4B4"/>
<path d="M238.299 101.374C241.522 101.374 244.134 98.7624 244.134 95.5404C244.134 92.3184 241.522 89.7064 238.299 89.7064C235.076 89.7064 232.463 92.3184 232.463 95.5404C232.463 98.7624 235.076 101.374 238.299 101.374Z" fill="#B4B4B4"/>
<path d="M267.839 101.374C271.061 101.374 273.674 98.7624 273.674 95.5404C273.674 92.3184 271.061 89.7064 267.839 89.7064C264.616 89.7064 262.003 92.3184 262.003 95.5404C262.003 98.7624 264.616 101.374 267.839 101.374Z" fill="#B4B4B4"/>
<path d="M297.378 101.374C300.601 101.374 303.214 98.7624 303.214 95.5404C303.214 92.3184 300.601 89.7064 297.378 89.7064C294.155 89.7064 291.543 92.3184 291.543 95.5404C291.543 98.7624 294.155 101.374 297.378 101.374Z" fill="#B4B4B4"/>
<path d="M326.918 101.374C330.141 101.374 332.754 98.7624 332.754 95.5404C332.754 92.3184 330.141 89.7064 326.918 89.7064C323.695 89.7064 321.083 92.3184 321.083 95.5404C321.083 98.7624 323.695 101.374 326.918 101.374Z" fill="#B4B4B4"/>
<path d="M356.458 101.374C359.681 101.374 362.294 98.7624 362.294 95.5404C362.294 92.3184 359.681 89.7064 356.458 89.7064C353.235 89.7064 350.622 92.3184 350.622 95.5404C350.622 98.7624 353.235 101.374 356.458 101.374Z" fill="#B4B4B4"/>
<path d="M385.998 101.374C389.221 101.374 391.833 98.7624 391.833 95.5404C391.833 92.3184 389.221 89.7064 385.998 89.7064C382.775 89.7064 380.162 92.3184 380.162 95.5404C380.162 98.7624 382.775 101.374 385.998 101.374Z" fill="#B4B4B4"/>
<path d="M415.538 101.374C418.761 101.374 421.373 98.7624 421.373 95.5404C421.373 92.3184 418.761 89.7064 415.538 89.7064C412.315 89.7064 409.702 92.3184 409.702 95.5404C409.702 98.7624 412.315 101.374 415.538 101.374Z" fill="#B4B4B4"/>
<path d="M267.839 131.277C271.061 131.277 273.674 128.665 273.674 125.443C273.674 122.221 271.061 119.609 267.839 119.609C264.616 119.609 262.003 122.221 262.003 125.443C262.003 128.665 264.616 131.277 267.839 131.277Z" fill="#B4B4B4"/>
<path d="M297.378 131.277C300.601 131.277 303.214 128.665 303.214 125.443C303.214 122.221 300.601 119.609 297.378 119.609C294.155 119.609 291.543 122.221 291.543 125.443C291.543 128.665 294.155 131.277 297.378 131.277Z" fill="#007ACC"/>
<path d="M326.918 131.277C330.141 131.277 332.754 128.665 332.754 125.443C332.754 122.221 330.141 119.609 326.918 119.609C323.695 119.609 321.083 122.221 321.083 125.443C321.083 128.665 323.695 131.277 326.918 131.277Z" fill="#B4B4B4"/>
<path d="M356.458 131.277C359.681 131.277 362.294 128.665 362.294 125.443C362.294 122.221 359.681 119.609 356.458 119.609C353.235 119.609 350.622 122.221 350.622 125.443C350.622 128.665 353.235 131.277 356.458 131.277Z" fill="#B4B4B4"/>
<path d="M385.998 131.277C389.221 131.277 391.833 128.665 391.833 125.443C391.833 122.221 389.221 119.609 385.998 119.609C382.775 119.609 380.162 122.221 380.162 125.443C380.162 128.665 382.775 131.277 385.998 131.277Z" fill="#B4B4B4"/>
<path d="M415.538 131.277C418.761 131.277 421.373 128.665 421.373 125.443C421.373 122.221 418.761 119.609 415.538 119.609C412.315 119.609 409.702 122.221 409.702 125.443C409.702 128.665 412.315 131.277 415.538 131.277Z" fill="#B4B4B4"/>
<path d="M267.839 161.179C271.061 161.179 273.674 158.567 273.674 155.345C273.674 152.123 271.061 149.511 267.839 149.511C264.616 149.511 262.003 152.123 262.003 155.345C262.003 158.567 264.616 161.179 267.839 161.179Z" fill="#B4B4B4"/>
<path d="M297.378 161.179C300.601 161.179 303.214 158.567 303.214 155.345C303.214 152.123 300.601 149.511 297.378 149.511C294.155 149.511 291.543 152.123 291.543 155.345C291.543 158.567 294.155 161.179 297.378 161.179Z" fill="#B4B4B4"/>
<path d="M326.918 161.179C330.141 161.179 332.754 158.567 332.754 155.345C332.754 152.123 330.141 149.511 326.918 149.511C323.695 149.511 321.083 152.123 321.083 155.345C321.083 158.567 323.695 161.179 326.918 161.179Z" fill="#B4B4B4"/>
<path d="M356.458 161.179C359.681 161.179 362.294 158.567 362.294 155.345C362.294 152.123 359.681 149.511 356.458 149.511C353.235 149.511 350.622 152.123 350.622 155.345C350.622 158.567 353.235 161.179 356.458 161.179Z" fill="#B4B4B4"/>
<path d="M385.998 161.179C389.221 161.179 391.833 158.567 391.833 155.345C391.833 152.123 389.221 149.511 385.998 149.511C382.775 149.511 380.162 152.123 380.162 155.345C380.162 158.567 382.775 161.179 385.998 161.179Z" fill="#007ACC"/>
<path d="M415.538 161.179C418.761 161.179 421.373 158.567 421.373 155.345C421.373 152.123 418.761 149.511 415.538 149.511C412.315 149.511 409.702 152.123 409.702 155.345C409.702 158.567 412.315 161.179 415.538 161.179Z" fill="#B4B4B4"/>
<path d="M267.839 191.081C271.061 191.081 273.674 188.469 273.674 185.247C273.674 182.025 271.061 179.413 267.839 179.413C264.616 179.413 262.003 182.025 262.003 185.247C262.003 188.469 264.616 191.081 267.839 191.081Z" fill="#B4B4B4"/>
<path d="M297.378 191.081C300.601 191.081 303.214 188.469 303.214 185.247C303.214 182.025 300.601 179.413 297.378 179.413C294.155 179.413 291.543 182.025 291.543 185.247C291.543 188.469 294.155 191.081 297.378 191.081Z" fill="#B4B4B4"/>
<path d="M326.918 191.081C330.141 191.081 332.754 188.469 332.754 185.247C332.754 182.025 330.141 179.413 326.918 179.413C323.695 179.413 321.083 182.025 321.083 185.247C321.083 188.469 323.695 191.081 326.918 191.081Z" fill="#B4B4B4"/>
<path d="M356.458 191.081C359.681 191.081 362.294 188.469 362.294 185.247C362.294 182.025 359.681 179.413 356.458 179.413C353.235 179.413 350.622 182.025 350.622 185.247C350.622 188.469 353.235 191.081 356.458 191.081Z" fill="#B4B4B4"/>
<path d="M385.998 191.081C389.221 191.081 391.833 188.469 391.833 185.247C391.833 182.025 389.221 179.413 385.998 179.413C382.775 179.413 380.162 182.025 380.162 185.247C380.162 188.469 382.775 191.081 385.998 191.081Z" fill="#B4B4B4"/>
<path d="M415.538 191.081C418.761 191.081 421.373 188.469 421.373 185.247C421.373 182.025 418.761 179.413 415.538 179.413C412.315 179.413 409.702 182.025 409.702 185.247C409.702 188.469 412.315 191.081 415.538 191.081Z" fill="#B4B4B4"/>
<path d="M149.679 220.983C152.902 220.983 155.515 218.371 155.515 215.149C155.515 211.927 152.902 209.315 149.679 209.315C146.456 209.315 143.844 211.927 143.844 215.149C143.844 218.371 146.456 220.983 149.679 220.983Z" fill="#B4B4B4"/>
<path d="M179.219 220.983C182.442 220.983 185.055 218.371 185.055 215.149C185.055 211.927 182.442 209.315 179.219 209.315C175.996 209.315 173.383 211.927 173.383 215.149C173.383 218.371 175.996 220.983 179.219 220.983Z" fill="#B4B4B4"/>
<path d="M208.759 220.983C211.982 220.983 214.595 218.371 214.595 215.149C214.595 211.927 211.982 209.315 208.759 209.315C205.536 209.315 202.923 211.927 202.923 215.149C202.923 218.371 205.536 220.983 208.759 220.983Z" fill="#B4B4B4"/>
<path d="M238.299 220.983C241.522 220.983 244.134 218.371 244.134 215.149C244.134 211.927 241.522 209.315 238.299 209.315C235.076 209.315 232.463 211.927 232.463 215.149C232.463 218.371 235.076 220.983 238.299 220.983Z" fill="#B4B4B4"/>
<path d="M267.839 220.983C271.061 220.983 273.674 218.371 273.674 215.149C273.674 211.927 271.061 209.315 267.839 209.315C264.616 209.315 262.003 211.927 262.003 215.149C262.003 218.371 264.616 220.983 267.839 220.983Z" fill="#B4B4B4"/>
<path d="M297.378 220.983C300.601 220.983 303.214 218.371 303.214 215.149C303.214 211.927 300.601 209.315 297.378 209.315C294.155 209.315 291.543 211.927 291.543 215.149C291.543 218.371 294.155 220.983 297.378 220.983Z" fill="#B4B4B4"/>
<path d="M326.918 220.983C330.141 220.983 332.754 218.371 332.754 215.149C332.754 211.927 330.141 209.315 326.918 209.315C323.695 209.315 321.083 211.927 321.083 215.149C321.083 218.371 323.695 220.983 326.918 220.983Z" fill="#B4B4B4"/>
<path d="M356.458 220.983C359.681 220.983 362.294 218.371 362.294 215.149C362.294 211.927 359.681 209.315 356.458 209.315C353.235 209.315 350.622 211.927 350.622 215.149C350.622 218.371 353.235 220.983 356.458 220.983Z" fill="#B4B4B4"/>
<path d="M385.998 220.983C389.221 220.983 391.833 218.371 391.833 215.149C391.833 211.927 389.221 209.315 385.998 209.315C382.775 209.315 380.162 211.927 380.162 215.149C380.162 218.371 382.775 220.983 385.998 220.983Z" fill="#B4B4B4"/>
<path d="M415.538 220.983C418.761 220.983 421.373 218.371 421.373 215.149C421.373 211.927 418.761 209.315 415.538 209.315C412.315 209.315 409.702 211.927 409.702 215.149C409.702 218.371 412.315 220.983 415.538 220.983Z" fill="#B4B4B4"/>
<path d="M149.676 250.885C152.899 250.885 155.512 248.273 155.512 245.051C155.512 241.829 152.899 239.217 149.676 239.217C146.453 239.217 143.84 241.829 143.84 245.051C143.84 248.273 146.453 250.885 149.676 250.885Z" fill="#B4B4B4"/>
<path d="M179.219 250.885C182.442 250.885 185.055 248.273 185.055 245.051C185.055 241.829 182.442 239.217 179.219 239.217C175.996 239.217 173.383 241.829 173.383 245.051C173.383 248.273 175.996 250.885 179.219 250.885Z" fill="#B4B4B4"/>
<path d="M149.676 280.787C152.899 280.787 155.511 278.175 155.511 274.953C155.511 271.731 152.899 269.119 149.676 269.119C146.453 269.119 143.84 271.731 143.84 274.953C143.84 278.175 146.453 280.787 149.676 280.787Z" fill="#B4B4B4"/>
<path d="M179.219 280.788C182.442 280.788 185.055 278.176 185.055 274.954C185.055 271.732 182.442 269.12 179.219 269.12C175.996 269.12 173.383 271.732 173.383 274.954C173.383 278.176 175.996 280.788 179.219 280.788Z" fill="#B4B4B4"/>
<path d="M238.299 280.788C241.522 280.788 244.134 278.176 244.134 274.954C244.134 271.732 241.522 269.12 238.299 269.12C235.076 269.12 232.463 271.732 232.463 274.954C232.463 278.176 235.076 280.788 238.299 280.788Z" fill="#B4B4B4"/>
<path d="M532.743 68.8292H301.488C300.352 68.8279 299.264 68.3764 298.461 67.5738C297.658 66.7711 297.206 65.683 297.205 64.5479V7.19956C297.206 6.0645 297.658 4.97632 298.461 4.17371C299.264 3.3711 300.352 2.9196 301.488 2.91827H532.743C533.878 2.9196 534.967 3.3711 535.769 4.17371C536.572 4.97632 537.024 6.0645 537.025 7.19956V64.5479C537.024 65.683 536.572 66.7712 535.769 67.5738C534.967 68.3764 533.878 68.8279 532.743 68.8292ZM301.488 4.63079C300.806 4.63153 300.153 4.90241 299.671 5.38399C299.19 5.86556 298.919 6.51851 298.918 7.19956V64.5479C298.919 65.229 299.19 65.8819 299.671 66.3635C300.153 66.8451 300.806 67.116 301.488 67.1167H532.743C533.424 67.116 534.077 66.8451 534.559 66.3635C535.041 65.8819 535.311 65.229 535.312 64.5479V7.19956C535.311 6.51851 535.041 5.86556 534.559 5.38399C534.077 4.90241 533.424 4.63153 532.743 4.63079H301.488Z" fill="#B4B4B4"/>
<path d="M331.465 53.8552C341.399 53.8552 349.451 45.8046 349.451 35.8737C349.451 25.9429 341.399 17.8923 331.465 17.8923C321.531 17.8923 313.479 25.9429 313.479 35.8737C313.479 45.8046 321.531 53.8552 331.465 53.8552Z" fill="#007ACC"/>
<path d="M373.005 23.8862C372.21 23.8862 371.448 24.2019 370.886 24.7639C370.323 25.326 370.008 26.0882 370.008 26.8831C370.008 27.6779 370.323 28.4402 370.886 29.0022C371.448 29.5642 372.21 29.88 373.005 29.88H452.66C453.455 29.88 454.217 29.5642 454.779 29.0022C455.342 28.4402 455.657 27.6779 455.657 26.8831C455.657 26.0882 455.342 25.326 454.779 24.7639C454.217 24.2019 453.455 23.8862 452.66 23.8862H373.005Z" fill="#B4B4B4"/>
<path d="M373.005 41.8676C372.21 41.8676 371.448 42.1833 370.886 42.7453C370.323 43.3073 370.008 44.0696 370.008 44.8645C370.008 45.6593 370.323 46.4216 370.886 46.9836C371.448 47.5456 372.21 47.8614 373.005 47.8614H514.328C515.123 47.8614 515.885 47.5456 516.447 46.9836C517.01 46.4216 517.325 45.6593 517.325 44.8645C517.325 44.0696 517.01 43.3073 516.447 42.7453C515.885 42.1833 515.123 41.8676 514.328 41.8676H373.005Z" fill="#B4B4B4"/>
<path d="M235.538 185.28H4.28249C3.14711 185.279 2.05862 184.827 1.25579 184.025C0.452952 183.222 0.00133059 182.134 0 180.999V123.651C0.00133059 122.516 0.452952 121.427 1.25579 120.625C2.05862 119.822 3.14711 119.371 4.28249 119.369H235.538C236.673 119.371 237.761 119.822 238.564 120.625C239.367 121.427 239.819 122.516 239.82 123.651V180.999C239.819 182.134 239.367 183.222 238.564 184.025C237.761 184.827 236.673 185.279 235.538 185.28ZM4.28249 121.082C3.60125 121.083 2.94812 121.354 2.46641 121.835C1.98469 122.317 1.71374 122.97 1.713 123.651V180.999C1.71374 181.68 1.98469 182.333 2.46641 182.815C2.94812 183.296 3.60125 183.567 4.28249 183.568H235.538C236.219 183.567 236.872 183.296 237.354 182.815C237.835 182.333 238.106 181.68 238.107 180.999V123.651C238.106 122.97 237.835 122.317 237.354 121.835C236.872 121.354 236.219 121.083 235.538 121.082H4.28249Z" fill="#B4B4B4"/>
<path d="M34.26 170.306C44.1936 170.306 52.2464 162.256 52.2464 152.325C52.2464 142.394 44.1936 134.343 34.26 134.343C24.3263 134.343 16.2735 142.394 16.2735 152.325C16.2735 162.256 24.3263 170.306 34.26 170.306Z" fill="#007ACC"/>
<path d="M75.8001 140.337C75.0051 140.337 74.2426 140.653 73.6804 141.215C73.1182 141.777 72.8024 142.539 72.8024 143.334C72.8024 144.129 73.1182 144.891 73.6804 145.453C74.2426 146.015 75.0051 146.331 75.8001 146.331H158.881C159.676 146.331 160.438 146.015 161 145.453C161.562 144.891 161.878 144.129 161.878 143.334C161.878 142.539 161.562 141.777 161 141.215C160.438 140.653 159.676 140.337 158.881 140.337H75.8001Z" fill="#B4B4B4"/>
<path d="M75.8001 158.319C75.0051 158.319 74.2426 158.634 73.6804 159.196C73.1182 159.758 72.8024 160.521 72.8024 161.316C72.8024 162.11 73.1182 162.873 73.6804 163.435C74.2426 163.997 75.0051 164.312 75.8001 164.312H217.122C217.917 164.312 218.68 163.997 219.242 163.435C219.804 162.873 220.12 162.11 220.12 161.316C220.12 160.521 219.804 159.758 219.242 159.196C218.68 158.634 217.917 158.319 217.122 158.319H75.8001Z" fill="#B4B4B4"/>
<path d="M444.523 311.15H213.268C212.133 311.149 211.044 310.697 210.242 309.895C209.439 309.092 208.987 308.004 208.986 306.869V249.521C208.987 248.385 209.439 247.297 210.242 246.495C211.044 245.692 212.133 245.241 213.268 245.239H444.523C445.659 245.241 446.747 245.692 447.55 246.495C448.353 247.297 448.804 248.385 448.806 249.521V306.869C448.804 308.004 448.353 309.092 447.55 309.895C446.747 310.697 445.659 311.149 444.523 311.15ZM213.268 246.952C212.587 246.953 211.934 247.223 211.452 247.705C210.97 248.187 210.699 248.839 210.699 249.521V306.869C210.699 307.55 210.97 308.203 211.452 308.684C211.934 309.166 212.587 309.437 213.268 309.438H444.523C445.205 309.437 445.858 309.166 446.339 308.684C446.821 308.203 447.092 307.55 447.093 306.869V249.521C447.092 248.839 446.821 248.187 446.339 247.705C445.858 247.223 445.205 246.953 444.523 246.952H213.268Z" fill="#3F3D56"/>
<path d="M243.246 296.176C253.179 296.176 261.232 288.126 261.232 278.195C261.232 268.264 253.179 260.213 243.246 260.213C233.312 260.213 225.259 268.264 225.259 278.195C225.259 288.126 233.312 296.176 243.246 296.176Z" fill="#007ACC"/>
<path d="M284.786 266.207C283.991 266.207 283.228 266.523 282.666 267.085C282.104 267.647 281.788 268.409 281.788 269.204C281.788 269.999 282.104 270.761 282.666 271.323C283.228 271.885 283.991 272.201 284.786 272.201H361.014C361.809 272.201 362.572 271.885 363.134 271.323C363.696 270.761 364.012 269.999 364.012 269.204C364.012 268.409 363.696 267.647 363.134 267.085C362.572 266.523 361.809 266.207 361.014 266.207H284.786Z" fill="#B4B4B4"/>
<path d="M284.786 284.189C283.991 284.189 283.228 284.504 282.666 285.066C282.104 285.628 281.788 286.391 281.788 287.185C281.788 287.98 282.104 288.743 282.666 289.305C283.228 289.867 283.991 290.182 284.786 290.182H426.108C426.903 290.182 427.666 289.867 428.228 289.305C428.79 288.743 429.106 287.98 429.106 287.185C429.106 286.391 428.79 285.628 428.228 285.066C427.666 284.504 426.903 284.189 426.108 284.189H284.786Z" fill="#B4B4B4"/>
<path d="M568.929 296.606C558.886 326.727 517.8 294.78 517.8 294.78L528.756 180.686C545.191 167.908 562.538 178.861 562.538 178.861L568.929 296.606Z" fill="#B4B4B4"/>
<path d="M566.772 397.696L580.771 397.843L577.274 438.186L566.773 438.187L566.772 397.696Z" fill="#FFB8B8"/>
<path d="M564.095 434.758H584.774C588.268 434.762 591.618 436.152 594.088 438.621C596.559 441.091 597.949 444.44 597.953 447.933V448.361H564.095V434.758Z" fill="#2F2E41"/>
<path d="M528.82 397.696L513.323 397.695L518.318 438.186L528.819 438.187L528.82 397.696Z" fill="#FFB8B8"/>
<path d="M497.638 448.361V447.933C497.639 444.439 499.027 441.088 501.499 438.617C503.97 436.146 507.323 434.758 510.818 434.758L531.497 434.759L531.496 448.363L497.638 448.361Z" fill="#2F2E41"/>
<path d="M565.827 431.198L547.487 324.317L530.494 429.82L513.278 430.776L508.687 289.42L509.033 289.343C511.88 288.706 578.869 273.996 589.851 295.039L589.907 295.145L580.741 431.678L565.827 431.198Z" fill="#2F2E41"/>
<path d="M546.39 167.316C558.008 167.316 567.426 157.9 567.426 146.285C567.426 134.67 558.008 125.254 546.39 125.254C534.771 125.254 525.353 134.67 525.353 146.285C525.353 157.9 534.771 167.316 546.39 167.316Z" fill="#FFB8B8"/>
<path d="M564.062 305.619C561.597 304.936 559.82 302.106 558.47 296.71C558.238 295.779 536.397 202.768 554.867 185.917L559.125 174.094L564.951 177.977C567.013 177.996 588.094 178.53 589.896 192.039C591.66 205.263 596.462 293.859 591.635 299.37C591.54 299.492 591.42 299.591 591.283 299.66C591.146 299.73 590.995 299.768 590.841 299.772C585.95 299.772 584.465 294.347 584.116 292.617C582.953 293.099 579.489 294.868 573.797 300.559C570.27 304.085 567.506 305.774 565.221 305.774C564.83 305.775 564.44 305.723 564.062 305.619Z" fill="#2F2E41"/>
<path d="M518.411 300.56C512.716 294.867 509.252 293.098 508.091 292.618C507.742 294.347 506.257 299.773 501.366 299.773C501.212 299.768 501.061 299.73 500.924 299.661C500.787 299.591 500.667 299.492 500.572 299.371C495.746 293.86 500.547 205.264 502.311 192.04C504.113 178.53 525.195 177.997 527.256 177.977L533.083 174.094L537.34 185.917C555.809 202.768 533.969 295.78 533.737 296.71C532.388 302.106 530.611 304.937 528.145 305.62C527.767 305.724 527.378 305.776 526.986 305.775C524.702 305.775 521.936 304.085 518.411 300.56Z" fill="#2F2E41"/>
<path d="M563.757 158.298C567.316 155.739 570.011 152.157 571.484 148.03C572.957 143.902 573.138 139.424 572.003 135.191C570.868 130.957 568.471 127.17 565.13 124.332C561.789 121.495 557.664 119.741 553.302 119.304C551.365 119.11 549.279 119.139 547.674 118.04C546.247 117.063 545.479 115.369 544.168 114.242C543.336 113.598 542.379 113.133 541.358 112.875C540.337 112.618 539.274 112.574 538.236 112.747C536.163 113.104 534.154 113.764 532.273 114.706C527.608 116.785 522.649 119.343 520.527 123.987C518.688 128.01 519.5 132.97 522.102 136.546C524.839 140.085 528.829 142.441 533.251 143.127C537.646 143.784 542.135 143.379 546.342 141.949C549.119 141.075 551.86 139.885 554.769 139.788C557.039 139.712 559.281 140.313 561.209 141.514C563.137 142.716 564.663 144.463 565.595 146.535C566.527 148.606 566.821 150.908 566.44 153.147C566.06 155.386 565.022 157.461 563.458 159.109" fill="#2F2E41"/>
<path d="M449.098 283.406C450.312 283.377 451.509 283.11 452.621 282.62C453.732 282.129 454.736 281.424 455.575 280.546C456.414 279.667 457.071 278.632 457.51 277.5C457.949 276.367 458.16 275.159 458.132 273.945L470.4 253.253L460.921 244.565L447.999 264.953C445.614 265.182 443.412 266.327 441.854 268.147C440.297 269.966 439.506 272.319 439.649 274.709C439.791 277.1 440.855 279.342 442.618 280.964C444.38 282.586 446.703 283.461 449.098 283.406Z" fill="#FFB8B8"/>
<path d="M591.424 306.074C592.442 305.411 593.319 304.554 594.006 303.552C594.692 302.55 595.174 301.422 595.425 300.234C595.675 299.045 595.689 297.819 595.465 296.626C595.242 295.432 594.785 294.294 594.122 293.276L593.652 269.227L581.018 266.831L580.771 290.966C578.865 292.416 577.595 294.549 577.229 296.915C576.864 299.282 577.431 301.698 578.811 303.656C580.191 305.613 582.277 306.959 584.629 307.41C586.982 307.861 589.418 307.382 591.424 306.074Z" fill="#FFB8B8"/>
<path d="M452.83 250.133L452.687 249.906L452.828 249.678C471.229 220.138 509.853 183.238 510.241 182.869L510.364 182.753L515.134 182.704L520.291 195.547C518.685 198.635 475.414 259.005 469.7 263.009C469.245 263.324 468.729 263.539 468.186 263.642C467.642 263.744 467.083 263.731 466.544 263.603C465.592 263.384 464.686 262.998 463.868 262.464C458.596 259.199 453.1 250.56 452.83 250.133Z" fill="#2F2E41"/>
<path d="M578.614 283.841C578.102 283.666 577.631 283.387 577.232 283.021C576.833 282.655 576.514 282.21 576.296 281.714C573.541 275.288 585.348 194.117 585.852 190.665L585.948 190.011L589.939 192.54L589.978 192.712C590.096 193.231 601.723 244.942 598.572 279.302L598.549 279.548L598.325 279.652C597.845 279.874 588.16 284.321 581.706 284.321C580.655 284.348 579.607 284.186 578.614 283.841Z" fill="#2F2E41"/>
<path d="M658.144 449H430.315C430.088 449 429.87 448.91 429.709 448.749C429.549 448.589 429.458 448.371 429.458 448.144C429.458 447.917 429.549 447.699 429.709 447.539C429.87 447.378 430.088 447.288 430.315 447.288H658.144C658.371 447.288 658.589 447.378 658.749 447.539C658.91 447.699 659 447.917 659 448.144C659 448.371 658.91 448.589 658.749 448.749C658.589 448.91 658.371 449 658.144 449Z" fill="#3F3D56"/>
</g>
<defs>
<clipPath id="clip0_1_205">
<rect width="659" height="449" fill="white"/>
</clipPath>
</defs>
</svg>
