<svg width="776" height="417" viewBox="0 0 776 417" fill="none" xmlns="http://www.w3.org/2000/svg">
<g clip-path="url(#clip0_1_24)">
<path d="M48.8142 48.7888C39.1596 48.7888 29.7219 45.9253 21.6944 40.5605C13.667 35.1957 7.41035 27.5705 3.71572 18.6492C0.0210895 9.72784 -0.945594 -0.0889664 0.937912 -9.55981C2.82142 -19.0307 7.47053 -27.7302 14.2973 -34.5583C21.1241 -41.3864 29.822 -46.0364 39.291 -47.9202C48.76 -49.8041 58.5749 -48.8372 67.4945 -45.1419C76.4142 -41.4466 84.0379 -35.1887 89.4017 -27.1597C94.7654 -19.1307 97.6283 -9.69118 97.6283 -0.03479C97.6137 12.9095 92.4661 25.3195 83.3148 34.4725C74.1636 43.6255 61.756 48.7741 48.8142 48.7888ZM48.8142 -46.8241C39.5619 -46.8241 30.5174 -44.0799 22.8244 -38.9386C15.1315 -33.7974 9.13551 -26.4899 5.59482 -17.9403C2.05414 -9.39065 1.12774 0.0171089 2.93276 9.09334C4.73779 18.1696 9.19317 26.5066 15.7355 33.0502C22.2778 39.5938 30.6133 44.05 39.6878 45.8554C48.7623 47.6608 58.1682 46.7342 66.7162 43.1928C75.2642 39.6515 82.5703 33.6544 87.7105 25.9599C92.8508 18.2655 95.5944 9.21925 95.5944 -0.03479C95.5803 -12.4398 90.6472 -24.3326 81.8773 -33.1043C73.1073 -41.8759 61.2167 -46.81 48.8142 -46.8241Z" fill="#F2F2F2"/>
<path d="M380.344 20.3085C375.517 20.3085 370.798 18.8767 366.784 16.1943C362.77 13.5119 359.642 9.69931 357.795 5.23864C355.947 0.777966 355.464 -4.13041 356.406 -8.86583C357.347 -13.6013 359.672 -17.951 363.085 -21.3651C366.499 -24.7791 370.848 -27.1041 375.582 -28.0461C380.317 -28.988 385.224 -28.5046 389.684 -26.6569C394.144 -24.8092 397.956 -21.6803 400.638 -17.6658C403.319 -13.6513 404.751 -8.93153 404.751 -4.10333C404.744 2.36882 402.17 8.57379 397.594 13.1503C393.018 17.7268 386.815 20.3011 380.344 20.3085ZM380.344 -26.4808C375.919 -26.4808 371.593 -25.1684 367.914 -22.7095C364.235 -20.2507 361.367 -16.7558 359.674 -12.6668C357.98 -8.57788 357.537 -4.0785 358.4 0.2623C359.264 4.6031 361.395 8.59037 364.524 11.7199C367.652 14.8495 371.639 16.9807 375.979 17.8442C380.319 18.7076 384.817 18.2645 388.906 16.5708C392.994 14.8771 396.488 12.0089 398.946 8.32891C401.405 4.64896 402.717 0.322514 402.717 -4.10333C402.71 -10.0361 400.351 -15.7241 396.157 -19.9192C391.962 -24.1143 386.275 -26.4741 380.344 -26.4808Z" fill="#F2F2F2"/>
<path d="M552.21 139.316C546.78 139.316 541.471 137.705 536.956 134.688C532.44 131.67 528.921 127.381 526.843 122.362C524.764 117.344 524.221 111.822 525.28 106.495C526.34 101.168 528.955 96.274 532.795 92.4332C536.635 88.5924 541.527 85.9768 546.854 84.9171C552.18 83.8574 557.701 84.4013 562.718 86.4799C567.735 88.5586 572.024 92.0786 575.041 96.5949C578.058 101.111 579.668 106.421 579.668 111.853C579.66 119.134 576.765 126.114 571.617 131.263C566.469 136.412 559.49 139.308 552.21 139.316ZM552.21 86.4237C547.182 86.4237 542.267 87.9151 538.086 90.7093C533.905 93.5034 530.646 97.4749 528.722 102.121C526.797 106.768 526.294 111.881 527.275 116.814C528.256 121.746 530.677 126.277 534.233 129.834C537.789 133.39 542.319 135.812 547.25 136.793C552.182 137.774 557.294 137.271 561.94 135.346C566.585 133.421 570.556 130.162 573.35 125.98C576.143 121.798 577.634 116.882 577.634 111.853C577.627 105.111 574.946 98.6473 570.18 93.8801C565.413 89.1129 558.951 86.4313 552.21 86.4237Z" fill="#F2F2F2"/>
<path d="M774.983 417H546.166C545.897 417 545.638 416.893 545.447 416.702C545.257 416.511 545.15 416.253 545.15 415.983C545.15 415.713 545.257 415.454 545.447 415.264C545.638 415.073 545.897 414.966 546.166 414.966H774.983C775.253 414.966 775.511 415.073 775.702 415.264C775.893 415.454 776 415.713 776 415.983C776 416.253 775.893 416.511 775.702 416.702C775.511 416.893 775.253 417 774.983 417Z" fill="#CCCCCC"/>
<path d="M651.788 107.018C665.583 107.018 676.766 95.8329 676.766 82.0354C676.766 68.238 665.583 57.053 651.788 57.053C637.994 57.053 626.811 68.238 626.811 82.0354C626.811 95.8329 637.994 107.018 651.788 107.018Z" fill="#FFB8B8"/>
<path d="M654.38 378.697L642.575 382.707L621.49 339.071L638.914 333.153L654.38 378.697Z" fill="#FFB8B8"/>
<path d="M632.997 382.198L655.764 374.463L660.633 388.801L623.531 401.406C622.891 399.523 622.629 397.532 622.759 395.548C622.888 393.564 623.407 391.625 624.286 389.841C625.165 388.057 626.387 386.464 627.882 385.153C629.376 383.842 631.114 382.837 632.997 382.198Z" fill="#2F2E41"/>
<path d="M681.053 403.345L668.602 403.97L660.262 356.23L678.64 355.305L681.053 403.345Z" fill="#FFB8B8"/>
<path d="M659.528 400.859L683.543 399.652L684.303 414.775L645.168 416.742C645.068 414.756 645.361 412.77 646.028 410.897C646.696 409.024 647.726 407.301 649.059 405.826C650.393 404.351 652.004 403.153 653.8 402.301C655.596 401.449 657.543 400.959 659.528 400.859Z" fill="#2F2E41"/>
<path d="M606.952 244.724C608.069 243.73 608.954 242.502 609.545 241.129C610.136 239.756 610.419 238.269 610.374 236.775C610.328 235.28 609.956 233.813 609.283 232.478C608.609 231.143 607.652 229.972 606.477 229.047L618.349 194.694L600.052 199.37L591.583 231.276C590.161 233.353 589.549 235.88 589.865 238.377C590.181 240.875 591.401 243.17 593.296 244.828C595.19 246.485 597.627 247.39 600.144 247.371C602.661 247.352 605.083 246.41 606.952 244.724Z" fill="#FFB8B8"/>
<path d="M679.89 388.951C679.729 388.95 679.568 388.942 679.408 388.925L662.505 387.135C661.467 387.03 660.496 386.571 659.756 385.835C659.015 385.099 658.55 384.131 658.439 383.093L645.377 266.618L635.925 298.491L653.547 361.131C653.727 361.769 653.765 362.438 653.661 363.092C653.556 363.747 653.311 364.371 652.942 364.921C652.573 365.471 652.089 365.935 651.523 366.28C650.957 366.624 650.323 366.842 649.665 366.918L632.531 368.888C631.44 369.008 630.342 368.735 629.435 368.116C628.528 367.498 627.872 366.575 627.585 365.515L608.864 295.023C608.71 294.444 608.672 293.84 608.751 293.245L617.165 229.979L679.926 235.013L684.464 384.233C684.483 384.846 684.378 385.456 684.157 386.027C683.936 386.599 683.602 387.12 683.175 387.56C682.748 388 682.238 388.35 681.674 388.589C681.109 388.828 680.503 388.951 679.89 388.951Z" fill="#2F2E41"/>
<path d="M658.195 245.831C637.169 245.831 613.363 237.705 611.921 237.206L611.504 237.062L635.224 115.324L635.661 115.342C645.061 115.724 670.715 115.919 670.973 115.921L671.433 115.925L681.321 223.356L683.088 239.069L682.872 239.245C676.823 244.136 667.799 245.831 658.195 245.831Z" fill="#007ACC"/>
<path d="M620.209 235.311L605.372 229.333L612.934 137.846C613.116 135.591 613.802 133.405 614.942 131.45C616.081 129.496 617.645 127.822 619.518 126.552L627.326 121.238C627.105 120.487 627.065 119.694 627.21 118.924C627.355 118.154 627.68 117.43 628.159 116.811C628.639 116.191 629.258 115.694 629.966 115.361C630.675 115.027 631.452 114.866 632.235 114.891L634.471 114.963C634.896 114.677 635.397 114.525 635.91 114.529C636.423 114.533 636.922 114.691 637.343 114.984C637.764 115.276 638.086 115.69 638.268 116.169C638.45 116.648 638.483 117.171 638.363 117.67L637.872 127.362L620.209 235.311Z" fill="#2F2E41"/>
<path d="M612.722 218.909L593.351 218.093L599.626 177.72L604.826 139.731C604.928 138.366 605.337 137.043 606.023 135.859C606.708 134.676 607.653 133.662 608.785 132.895C609.917 132.127 611.208 131.626 612.561 131.428C613.915 131.229 615.295 131.34 616.6 131.75C618.632 132.388 620.375 133.721 621.523 135.515C622.671 137.309 623.151 139.45 622.879 141.563L617.611 182.724L612.722 218.909Z" fill="#2F2E41"/>
<path d="M643.396 236.71L643.264 236.302C643.174 236.023 634.444 208.013 649.052 174.589L656.377 138.149L662.637 115.268C662.755 114.859 662.966 114.483 663.254 114.17C663.542 113.857 663.899 113.615 664.296 113.465C664.764 113.303 665.268 113.282 665.747 113.405C666.226 113.528 666.658 113.79 666.99 114.157C671.353 112.876 676.044 113.345 680.068 115.465L688.859 120.097C690.814 121.127 692.372 122.776 693.288 124.787C694.205 126.797 694.429 129.055 693.925 131.207L681.909 182.495L687.75 230.4L643.396 236.71Z" fill="#2F2E41"/>
<path d="M656.19 216.963C657.676 217.125 659.18 216.958 660.595 216.476C662.01 215.993 663.301 215.206 664.379 214.17C665.457 213.134 666.295 211.874 666.834 210.479C667.372 209.084 667.598 207.588 667.496 206.096L694.706 185.935L685.195 181.425L655.854 196.542C653.36 196.88 651.076 198.121 649.435 200.03C647.795 201.94 646.912 204.385 646.953 206.902C646.994 209.419 647.958 211.834 649.66 213.688C651.362 215.542 653.686 216.708 656.19 216.963Z" fill="#FFB8B8"/>
<path d="M673.248 207.939L664.058 190.78L686.724 175.861L675.663 136.182C675.22 134.593 675.109 132.93 675.338 131.297C675.566 129.663 676.129 128.094 676.991 126.688C677.852 125.282 678.995 124.069 680.346 123.124C681.698 122.179 683.23 121.523 684.846 121.197C687.703 120.628 690.669 121.115 693.194 122.567C695.718 124.019 697.631 126.339 698.575 129.095L713.499 172.97C713.807 173.874 713.824 174.852 713.548 175.766C713.272 176.68 712.718 177.486 711.962 178.069L673.248 207.939Z" fill="#2F2E41"/>
<path d="M653.556 87.3344C650.562 87.724 648.303 84.6599 647.256 81.8275C646.208 78.995 645.41 75.6975 642.807 74.1675C639.25 72.0772 634.699 74.5913 630.632 73.9016C626.039 73.1228 623.053 68.2541 622.819 63.6005C622.585 58.9469 624.436 54.4711 626.253 50.1805L626.887 55.5127C626.803 53.7055 627.183 51.9067 627.992 50.2885C628.801 48.6702 630.011 47.2866 631.507 46.27L630.69 54.0942C630.864 53.0148 631.249 51.9803 631.824 51.0501C632.399 50.12 633.151 49.3126 634.039 48.6741C634.926 48.0357 635.931 47.5788 636.995 47.3297C638.06 47.0807 639.163 47.0443 640.242 47.2228L640.113 51.8847C645.418 51.2538 650.769 50.622 656.09 51.1026C661.411 51.5833 666.768 53.2671 670.801 56.7718C676.833 62.0144 679.036 70.6469 678.297 78.6055C677.557 86.5641 674.272 94.0405 670.849 101.263C669.988 103.08 668.797 105.131 666.799 105.362C665.005 105.57 663.363 104.07 662.805 102.351C662.375 100.588 662.392 98.7449 662.853 96.9895C663.358 94.307 663.994 91.5651 663.52 88.877C663.045 86.189 661.112 83.5327 658.403 83.2033C655.693 82.8738 652.921 85.9711 654.224 88.3698L653.556 87.3344Z" fill="#2F2E41"/>
<path d="M326.76 361.643L317.037 357.549L310.367 308.798H221.546L214.316 357.349L205.617 361.699C205.201 361.908 204.868 362.25 204.67 362.672C204.473 363.093 204.424 363.569 204.531 364.022C204.638 364.475 204.895 364.879 205.259 365.167C205.624 365.456 206.076 365.613 206.541 365.613H325.959C326.436 365.613 326.898 365.448 327.267 365.146C327.636 364.844 327.889 364.424 327.983 363.956C328.078 363.489 328.008 363.003 327.785 362.581C327.562 362.16 327.2 361.828 326.76 361.643Z" fill="#E6E6E6"/>
<path d="M484.602 315.284H48.2864C45.9972 315.279 43.8035 314.366 42.1866 312.745C40.5696 311.124 39.6616 308.928 39.6616 306.638V245.1H493.227V306.638C493.227 308.928 492.319 311.124 490.702 312.745C489.085 314.366 486.891 315.279 484.602 315.284Z" fill="#CCCCCC"/>
<path d="M493.683 274.185H39.2632V10.8765C39.2664 8.11321 40.3654 5.46404 42.319 3.51014C44.2726 1.55624 46.9213 0.457184 49.6841 0.454102H483.262C486.025 0.457211 488.673 1.55628 490.627 3.51017C492.581 5.46406 493.679 8.11322 493.683 10.8765V274.185Z" fill="#3F3D56"/>
<path d="M466.542 255.074H66.404C64.2741 255.071 62.2321 254.224 60.726 252.718C59.2199 251.211 58.3727 249.169 58.3703 247.039V27.5999C58.3727 25.4695 59.2198 23.4271 60.7259 21.9207C62.232 20.4143 64.274 19.5669 66.404 19.5645H466.542C468.672 19.5669 470.714 20.4143 472.22 21.9207C473.726 23.4271 474.573 25.4695 474.576 27.5999V247.039C474.573 249.169 473.726 251.211 472.22 252.718C470.714 254.224 468.672 255.071 466.542 255.074Z" fill="white"/>
<path d="M462.776 366.122H75.3131C75.0434 366.122 74.7847 366.015 74.594 365.824C74.4033 365.633 74.2961 365.375 74.2961 365.105C74.2961 364.835 74.4033 364.576 74.594 364.386C74.7847 364.195 75.0434 364.088 75.3131 364.088H462.776C463.045 364.088 463.304 364.195 463.495 364.386C463.686 364.576 463.793 364.835 463.793 365.105C463.793 365.375 463.686 365.633 463.495 365.824C463.304 366.015 463.045 366.122 462.776 366.122Z" fill="#CCCCCC"/>
<path d="M428.951 227.809H103.995C103.726 227.809 103.467 227.701 103.276 227.511C103.085 227.32 102.978 227.061 102.978 226.791V71.0103C102.978 70.7406 103.085 70.4819 103.276 70.2911C103.467 70.1003 103.726 69.9932 103.995 69.9932C104.265 69.9932 104.524 70.1003 104.714 70.2911C104.905 70.4819 105.012 70.7406 105.012 71.0103V225.774H428.951C429.22 225.774 429.479 225.881 429.67 226.072C429.861 226.263 429.968 226.522 429.968 226.791C429.968 227.061 429.861 227.32 429.67 227.511C429.479 227.701 429.22 227.809 428.951 227.809Z" fill="#3F3D56"/>
<path d="M173.424 216.62H143.868C143.068 216.619 142.3 216.301 141.735 215.735C141.169 215.169 140.85 214.401 140.849 213.601V172.85C140.85 172.049 141.169 171.282 141.735 170.716C142.3 170.15 143.068 169.831 143.868 169.831H173.424C174.224 169.831 174.992 170.15 175.558 170.716C176.124 171.282 176.442 172.049 176.443 172.85V213.601C176.442 214.401 176.124 215.169 175.558 215.735C174.992 216.301 174.224 216.619 173.424 216.62Z" fill="#007ACC"/>
<path d="M227.323 216.62H197.767C196.967 216.619 196.199 216.301 195.634 215.735C195.068 215.169 194.749 214.401 194.748 213.601V134.198C194.749 133.397 195.068 132.63 195.634 132.064C196.199 131.498 196.967 131.18 197.767 131.179H227.323C228.123 131.18 228.891 131.498 229.457 132.064C230.023 132.63 230.341 133.397 230.342 134.198V213.601C230.341 214.401 230.023 215.169 229.457 215.735C228.891 216.301 228.123 216.619 227.323 216.62Z" fill="#007ACC"/>
<path d="M281.222 216.62H251.666C250.866 216.619 250.098 216.301 249.532 215.735C248.967 215.169 248.648 214.401 248.647 213.601V172.85C248.648 172.049 248.967 171.282 249.532 170.716C250.098 170.15 250.866 169.831 251.666 169.831H281.222C282.022 169.831 282.79 170.15 283.356 170.716C283.922 171.282 284.24 172.049 284.241 172.85V213.601C284.24 214.401 283.922 215.169 283.356 215.735C282.79 216.301 282.022 216.619 281.222 216.62Z" fill="#007ACC"/>
<path d="M335.121 216.62H305.565C304.783 216.637 304.026 216.343 303.46 215.803C302.894 215.262 302.566 214.52 302.546 213.738V118.804C302.566 118.022 302.894 117.279 303.46 116.739C304.026 116.198 304.783 115.905 305.565 115.921H335.121C335.903 115.905 336.66 116.198 337.226 116.739C337.792 117.279 338.12 118.022 338.14 118.804V213.738C338.12 214.52 337.792 215.262 337.226 215.803C336.66 216.343 335.903 216.637 335.121 216.62Z" fill="#007ACC"/>
<path d="M389.02 216.62H359.464C358.664 216.619 357.896 216.301 357.33 215.735C356.764 215.169 356.446 214.401 356.445 213.601V91.4772C356.446 90.6767 356.764 89.9093 357.33 89.3433C357.896 88.7773 358.664 88.4589 359.464 88.458H389.02C389.82 88.4589 390.588 88.7773 391.154 89.3433C391.72 89.9093 392.038 90.6767 392.039 91.4772V213.601C392.038 214.401 391.72 215.169 391.154 215.735C390.588 216.301 389.82 216.619 389.02 216.62Z" fill="#007ACC"/>
<path d="M158.646 157.625C162.016 157.625 164.748 154.892 164.748 151.522C164.748 148.151 162.016 145.419 158.646 145.419C155.276 145.419 152.544 148.151 152.544 151.522C152.544 154.892 155.276 157.625 158.646 157.625Z" fill="#3F3D56"/>
<path d="M212.545 117.956C215.915 117.956 218.647 115.223 218.647 111.853C218.647 108.482 215.915 105.75 212.545 105.75C209.175 105.75 206.443 108.482 206.443 111.853C206.443 115.223 209.175 117.956 212.545 117.956Z" fill="#3F3D56"/>
<path d="M266.444 157.625C269.814 157.625 272.546 154.892 272.546 151.522C272.546 148.151 269.814 145.419 266.444 145.419C263.074 145.419 260.342 148.151 260.342 151.522C260.342 154.892 263.074 157.625 266.444 157.625Z" fill="#3F3D56"/>
<path d="M320.343 98.6295C323.713 98.6295 326.445 95.8971 326.445 92.5265C326.445 89.156 323.713 86.4236 320.343 86.4236C316.973 86.4236 314.241 89.156 314.241 92.5265C314.241 95.8971 316.973 98.6295 320.343 98.6295Z" fill="#3F3D56"/>
<path d="M374.242 76.252C377.612 76.252 380.344 73.5197 380.344 70.1491C380.344 66.7785 377.612 64.0461 374.242 64.0461C370.872 64.0461 368.14 66.7785 368.14 70.1491C368.14 73.5197 370.872 76.252 374.242 76.252Z" fill="#3F3D56"/>
<path d="M266.572 152.889L212.545 112.414L159.256 152.336L158.036 150.708L212.545 109.872L266.316 150.155L319.748 91.6702L319.963 91.5827L373.862 69.8623L374.622 71.7491L320.938 93.3831L266.572 152.889Z" fill="#3F3D56"/>
</g>
<defs>
<clipPath id="clip0_1_24">
<rect width="776" height="417" fill="white"/>
</clipPath>
</defs>
</svg>
