<svg width="277" height="49" viewBox="0 0 277 49" fill="none" xmlns="http://www.w3.org/2000/svg">
<path d="M40.8387 17.6552C39.8531 17.6552 39.0389 18.4694 39.0389 19.455V36.3389L24.4689 44.6952C23.6119 45.1666 23.3119 46.2808 23.8261 47.1378C24.2975 47.9949 25.4117 48.2948 26.2688 47.7806L42.6813 38.3959V19.455C42.5956 18.4694 41.8243 17.6552 40.8387 17.6552Z" fill="white"/>
<path d="M18.2125 44.6952L3.64254 36.3389V19.455C3.64254 18.4694 2.82833 17.6552 1.84272 17.6552C0.857109 17.6552 0.0429077 18.4694 0.0429077 19.455V38.3959L16.4555 47.7806C17.3125 48.252 18.3839 47.952 18.8981 47.1378C19.3695 46.2379 19.0695 45.1666 18.2125 44.6952Z" fill="white"/>
<path d="M38.3532 13.4984C38.8674 12.6414 38.5675 11.5701 37.7104 11.0558L21.3407 1.54253L4.97095 10.9701C4.1139 11.4415 3.81393 12.5557 4.32816 13.4127C4.79954 14.2698 5.91371 14.5697 6.77076 14.0555L21.3407 5.65639L35.9106 14.1412C36.7677 14.6555 37.839 14.3555 38.3532 13.4984Z" fill="white"/>
<path d="M40.7958 16.1555C39.8102 16.1555 38.996 16.9697 38.996 17.9553V34.8393L24.3832 43.1955C23.5261 43.6669 23.2262 44.7811 23.7404 45.6381C24.2118 46.4952 25.3259 46.7952 26.183 46.2809L42.5956 36.8533V17.9124C42.5956 16.9268 41.7814 16.1555 40.7958 16.1555Z" fill="white"/>
<path d="M18.2124 43.1527L3.59963 34.7964V17.9124C3.59963 16.9268 2.78543 16.1126 1.79981 16.1126C0.814201 16.1126 0 16.9268 0 17.9124V36.8533L16.4126 46.2381C17.2696 46.7094 18.341 46.4095 18.8552 45.5953C19.3694 44.7382 19.0695 43.6241 18.2124 43.1527Z" fill="white"/>
<path d="M38.3103 11.9988C38.8245 11.1417 38.5246 10.0704 37.6675 9.55615L21.2978 0L4.97089 9.4276C4.11384 9.89898 3.81387 11.0131 4.3281 11.8702C4.79948 12.7273 5.91365 13.0272 6.7707 12.513L21.3406 4.11386L35.9105 12.5987C36.7247 13.1129 37.8389 12.813 38.3103 11.9988Z" fill="white"/>
<path d="M48.7236 12.9416V36.8534H52.0661V16.1556H62.3079V36.8534H65.6504V12.9416H48.7236Z" fill="white"/>
<path d="M95.0474 20.398C93.976 19.8409 92.7333 19.5409 91.2335 19.5409C89.7336 19.5409 88.4909 19.8409 87.4196 20.398C86.3483 20.9551 85.5769 21.8121 85.0198 22.9263C84.4627 24.0405 84.2056 25.3689 84.2056 26.9116V29.697C84.2056 31.2826 84.4627 32.611 85.0198 33.7252C85.5769 34.8393 86.3911 35.6964 87.4196 36.2535C88.4909 36.8534 89.7336 37.1105 91.2335 37.1105C92.7333 37.1105 93.976 36.8106 95.0474 36.2535C96.1187 35.6535 96.89 34.8393 97.4471 33.7252C98.0042 32.611 98.2613 31.2826 98.2613 29.7399V26.9116C98.2613 25.3689 98.0042 24.0405 97.4471 22.9263C96.89 21.8121 96.0758 20.9551 95.0474 20.398ZM94.9188 29.697C94.9188 31.0255 94.6188 32.0539 93.976 32.7824C93.3333 33.5109 92.4333 33.8966 91.2763 33.8966C90.1193 33.8966 89.2194 33.5109 88.5766 32.7824C87.9338 32.0539 87.6338 31.0255 87.6338 29.697V26.8687C87.6338 25.5403 87.9338 24.5118 88.5766 23.7833C89.2194 23.0548 90.1193 22.712 91.2763 22.712C92.4333 22.712 93.3333 23.0548 93.976 23.7833C94.6188 24.5118 94.9188 25.5403 94.9188 26.8687V29.697Z" fill="white"/>
<path d="M131.686 20.398C130.572 19.8409 129.244 19.5409 127.701 19.5409C126.801 19.5409 125.987 19.6266 125.216 19.8409C124.444 20.0552 123.716 20.3551 123.116 20.7837C122.473 21.1693 121.959 21.6836 121.573 22.2835L123.973 24.469C124.444 23.9119 125.001 23.4834 125.687 23.1834C126.33 22.8834 127.015 22.7549 127.701 22.7549C128.987 22.7549 130.015 23.0977 130.701 23.8262C131.429 24.5547 131.772 25.5832 131.772 26.8687H124.316V29.7399H131.686C131.686 31.1112 131.344 32.1825 130.615 32.911C129.887 33.6823 128.901 34.068 127.615 34.068C126.887 34.068 126.244 33.8966 125.558 33.5966C124.916 33.2966 124.359 32.8253 123.887 32.2682L121.487 34.4537C121.916 35.0108 122.43 35.525 123.073 35.9107C123.716 36.2963 124.401 36.5963 125.173 36.8106C125.944 37.0248 126.801 37.1105 127.658 37.1105C129.201 37.1105 130.529 36.8106 131.644 36.2535C132.758 35.6535 133.572 34.8393 134.172 33.7252C134.772 32.611 135.029 31.2826 135.029 29.697V26.8687C135.029 25.326 134.729 23.9976 134.172 22.9263C133.615 21.8121 132.801 20.9551 131.686 20.398Z" fill="white"/>
<path d="M151.484 19.798H147.456L143.042 26.6973H141.157V19.798H137.814V36.8534H141.157V29.8684H143.128L148.013 36.8534H152.513L145.699 28.0686L151.484 19.798Z" fill="white"/>
<path d="M156.541 23.8262C157.27 23.0977 158.255 22.7549 159.541 22.7549C160.226 22.7549 160.912 22.8834 161.555 23.1834C162.198 23.4834 162.755 23.9119 163.226 24.469L165.626 22.2835C165.197 21.6836 164.683 21.2122 164.083 20.7837C163.44 20.398 162.755 20.0552 161.983 19.8409C161.212 19.6266 160.355 19.5409 159.498 19.5409C157.955 19.5409 156.627 19.8409 155.513 20.398C154.398 20.9551 153.584 21.8121 152.984 22.8834C152.384 23.9976 152.127 25.2832 152.127 26.8259V29.6542C152.127 31.2397 152.427 32.5681 152.984 33.6823C153.584 34.7965 154.398 35.6107 155.513 36.2106C156.627 36.8106 157.955 37.0677 159.498 37.0677C160.355 37.0677 161.212 36.982 161.983 36.7677C162.755 36.5535 163.483 36.2535 164.083 35.8678C164.726 35.4821 165.24 34.9679 165.669 34.4108L163.269 32.0968C162.798 32.6967 162.24 33.1252 161.598 33.4252C160.955 33.7252 160.269 33.8966 159.541 33.8966C158.255 33.8966 157.227 33.5109 156.541 32.7824C155.855 32.0539 155.47 31.0254 155.47 29.6542V26.8259C155.47 25.5403 155.813 24.5118 156.541 23.8262Z" fill="white"/>
<path d="M168.197 19.798V36.8534H171.582V22.9691H178.996V36.8534H182.338V19.798H168.197Z" fill="white"/>
<path d="M217.263 22.7977H222.191V36.8534H225.577V22.7977H230.505V19.798H217.263V22.7977Z" fill="white"/>
<path d="M236.247 31.154V19.798H232.905V36.8106H235.819L243.618 25.7117V36.8106H246.96V19.798H244.089L236.247 31.154Z" fill="white"/>
<path d="M258.702 28.0686C259.516 27.7686 260.159 27.2544 260.587 26.5688C261.016 25.8831 261.273 25.0689 261.273 24.169C261.273 22.712 260.759 21.5978 259.73 20.7836C258.702 19.9694 257.288 19.5838 255.445 19.5838C253.731 19.5838 250.731 20.3123 249.231 23.1405L252.274 24.6832C252.745 23.3548 254.502 22.6692 255.317 22.6692C256.131 22.6692 256.774 22.8834 257.245 23.2691C257.716 23.6548 257.931 24.2547 257.931 24.9832C257.931 25.5831 257.802 26.0545 257.502 26.3974C257.202 26.7402 256.816 26.9116 256.302 26.9116H253.645V29.7827H256.302C256.988 29.7827 257.545 29.9541 257.931 30.2541C258.316 30.5969 258.488 31.0254 258.488 31.6254C258.488 32.3967 258.231 32.9967 257.716 33.3823C257.202 33.8109 256.431 34.0251 255.488 34.0251C254.631 34.0251 252.788 33.3395 252.403 32.0111L249.36 33.5538C250.046 34.8393 251.503 36.1249 252.403 36.5106C253.302 36.8963 254.374 37.1105 255.531 37.1105C257.545 37.1105 259.088 36.6391 260.202 35.7392C261.316 34.7965 261.873 33.5109 261.873 31.8396C261.873 30.7683 261.616 29.9541 261.059 29.2685C260.459 28.5828 259.687 28.1972 258.702 28.0686Z" fill="white"/>
<path d="M79.1062 20.398C78.0349 19.8409 76.7921 19.5409 75.2923 19.5409C74.0496 19.5409 72.6354 19.9266 71.7355 20.6122V19.5409H68.393V43.7527H71.7355V35.9964C72.7211 36.7249 74.0496 37.0677 75.2923 37.0677C76.7493 37.0677 78.0349 36.7677 79.1062 36.2106C80.1775 35.6107 80.9489 34.7965 81.5059 33.6823C82.063 32.5681 82.3201 31.2397 82.3201 29.697V26.8687C82.3201 25.326 82.063 23.9976 81.5059 22.8834C80.9489 21.8121 80.1775 20.9551 79.1062 20.398ZM78.9776 29.697C78.9776 31.0255 78.6777 32.0539 78.0349 32.7824C77.3921 33.5109 76.4922 33.8966 75.3351 33.8966C74.1781 33.8966 73.2782 33.5109 72.6354 32.7824C72.164 32.2682 71.9498 31.4968 71.8212 30.6826V25.926C71.9498 25.0689 72.2069 24.3404 72.6354 23.8262C73.2782 23.0977 74.1781 22.7549 75.3351 22.7549C76.4922 22.7549 77.3921 23.0977 78.0349 23.8262C78.6777 24.5547 78.9776 25.5832 78.9776 26.9116V29.697Z" fill="white"/>
<path d="M117.117 20.398C116.045 19.8409 114.802 19.5409 113.303 19.5409C112.917 19.5409 112.488 19.5838 112.103 19.6695V14.8271H108.76V19.7123C108.375 19.6266 107.946 19.5838 107.56 19.5838C106.103 19.5838 104.818 19.8837 103.746 20.4408C102.675 20.9979 101.904 21.855 101.347 22.9691C100.79 24.0833 100.533 25.4117 100.533 26.9544V29.7827C100.533 31.3254 100.79 32.6538 101.347 33.768C101.904 34.8822 102.718 35.6964 103.746 36.2963C104.818 36.8963 106.061 37.1534 107.56 37.1534C107.946 37.1534 108.375 37.1105 108.76 37.0248V41.7386H112.103V36.9391C112.488 37.0248 112.917 37.0677 113.303 37.0677C114.76 37.0677 116.045 36.7677 117.117 36.2106C118.188 35.6107 118.959 34.7965 119.516 33.6823C120.073 32.5681 120.33 31.2397 120.33 29.697V26.8687C120.33 25.326 120.073 23.9976 119.516 22.8834C118.959 21.8121 118.145 20.9551 117.117 20.398ZM107.56 33.9823C106.403 33.9823 105.503 33.5966 104.861 32.8681C104.218 32.1396 103.918 31.1111 103.918 29.7827V26.9544C103.918 25.626 104.218 24.5975 104.861 23.869C105.503 23.1405 106.403 22.7977 107.56 22.7977C108.032 22.7977 108.375 22.8834 108.76 23.012V33.768C108.375 33.8966 107.989 33.9823 107.56 33.9823ZM116.988 29.697C116.988 31.0254 116.688 32.0539 116.045 32.7824C115.402 33.5109 114.503 33.8966 113.345 33.8966C112.874 33.8966 112.488 33.8109 112.146 33.6823V22.9263C112.531 22.7977 112.917 22.712 113.345 22.712C114.503 22.712 115.402 23.0548 116.045 23.7833C116.688 24.5118 116.988 25.5403 116.988 26.8687V29.697Z" fill="white"/>
<path d="M212.292 20.398C211.221 19.8409 209.978 19.5409 208.479 19.5409C207.236 19.5409 205.822 19.9266 204.922 20.6122V19.5409H201.579V43.7527H204.922V35.9964C205.907 36.7249 207.236 37.0677 208.479 37.0677C209.936 37.0677 211.221 36.7677 212.292 36.2106C213.364 35.6107 214.135 34.7965 214.692 33.6823C215.249 32.5681 215.506 31.2397 215.506 29.697V26.8687C215.506 25.326 215.249 23.9976 214.692 22.8834C214.135 21.8121 213.321 20.9551 212.292 20.398ZM212.164 29.697C212.164 31.0255 211.864 32.0539 211.221 32.7824C210.578 33.5109 209.678 33.8966 208.521 33.8966C207.364 33.8966 206.464 33.5109 205.822 32.7824C205.35 32.2682 205.136 31.4968 205.007 30.6826V25.926C205.136 25.0689 205.393 24.3404 205.822 23.8262C206.464 23.0977 207.364 22.7549 208.521 22.7549C209.678 22.7549 210.578 23.0977 211.221 23.8262C211.864 24.5547 212.164 25.5832 212.164 26.9116V29.697Z" fill="white"/>
<path d="M198.237 22.9263C197.68 21.8121 196.865 20.9979 195.837 20.398C194.766 19.8409 193.523 19.5409 192.023 19.5409C190.566 19.5409 189.281 19.8409 188.209 20.398C187.138 20.9551 186.367 21.8121 185.809 22.9263C185.252 24.0405 184.995 25.3689 184.995 26.9116V29.697C184.995 31.2826 185.252 32.611 185.809 33.7252C186.367 34.8393 187.181 35.6964 188.209 36.2535C189.281 36.8534 190.523 37.1105 192.023 37.1105C193.48 37.1105 194.766 36.8106 195.837 36.2535C196.651 35.7821 197.851 34.6251 198.408 33.5538L195.366 32.0539C194.723 32.7824 193.866 33.9394 192.066 33.9394C190.909 33.9394 190.009 33.5538 189.366 32.8253C188.723 32.0968 188.423 31.1112 188.423 29.8256H199.137V29.0114V26.9116V26.6116H199.094C199.008 25.1975 198.751 23.9548 198.237 22.9263ZM192.023 22.712C193.18 22.712 194.08 23.0548 194.723 23.7833C195.323 24.469 195.58 25.4117 195.666 26.5688H188.381C188.423 25.4117 188.723 24.469 189.323 23.7833C189.966 23.0977 190.866 22.712 192.023 22.712Z" fill="white"/>
<path d="M277 26.9544C277 25.3689 276.743 24.0405 276.186 22.9263C275.629 21.8121 274.815 20.9551 273.786 20.398C272.715 19.798 271.472 19.5409 269.972 19.5409C268.515 19.5409 267.23 19.8409 266.158 20.398C265.344 20.8694 264.701 21.5121 264.187 22.3264L267.23 23.8262C267.872 23.0977 268.772 22.712 269.929 22.712C271.086 22.712 271.986 23.0977 272.629 23.8262C273.186 24.469 273.443 25.3689 273.529 26.4402H269.758C268.515 26.4402 267.401 26.6545 266.458 27.0401C265.515 27.4687 264.787 28.0686 264.316 28.8828C263.801 29.697 263.587 30.6398 263.587 31.7539C263.587 32.8253 263.844 33.8109 264.316 34.6251C264.83 35.4393 265.558 36.0392 266.458 36.4677C267.358 36.8534 268.429 37.0677 269.672 37.0677H270.101C270.872 37.0677 272.543 36.8106 273.572 36.0392V37.1105H276.914V29.0542V26.9544H277ZM270.186 33.8537H269.758C268.815 33.8537 268.129 33.6395 267.701 33.2966C267.23 32.911 267.015 32.4824 267.015 31.7539C267.015 31.0254 267.23 30.5969 267.701 30.2112C268.172 29.8684 268.858 29.6542 269.844 29.6542H273.657V32.8253C272.243 33.8537 270.186 33.8537 270.186 33.8537Z" fill="white"/>
<path d="M23.0119 17.1409V13.9698H19.6265V19.455L23.0119 17.1409Z" fill="white"/>
<path d="M19.6265 21.9833V35.7819H23.0119V19.6692L19.6265 21.9833Z" fill="white"/>
<path d="M32.1395 23.0546C31.7538 22.7546 31.5824 22.3261 31.5824 21.8119V17.998C31.5824 16.7124 31.1539 15.7268 30.3397 15.0411C29.5255 14.3555 28.3684 14.0127 26.8686 14.0127V16.4124C27.4685 16.4124 27.9399 16.5838 28.2827 16.8838C28.6256 17.1838 28.797 17.6123 28.797 18.1694V22.2833C28.797 23.4831 29.1826 24.383 29.954 24.8973C29.1826 25.4544 28.797 26.3543 28.797 27.597V31.6251C28.797 32.1822 28.6256 32.6108 28.2827 32.9107C27.9399 33.2107 27.4685 33.3821 26.8686 33.3821V35.7819C28.3684 35.7819 29.5255 35.439 30.3397 34.7534C31.1539 34.0677 31.5824 33.0821 31.5824 31.7966V27.9827C31.5824 27.4256 31.7538 27.0399 32.1395 26.7399C32.5252 26.44 33.0394 26.2686 33.6822 26.2686V25.7543V24.0402V23.526C33.0394 23.526 32.5252 23.3546 32.1395 23.0546Z" fill="white"/>
<path d="M11.056 17.998V21.8119C11.056 22.369 10.8845 22.7546 10.4989 23.0546C10.1132 23.3546 9.59897 23.526 8.95618 23.526V24.0402V25.7543V26.2685C9.64182 26.2685 10.1561 26.44 10.4989 26.7399C10.8845 27.0399 11.056 27.4684 11.056 27.9827V31.7965C11.056 33.0821 11.4845 34.0677 12.2987 34.7534C13.1129 35.439 14.2699 35.7818 15.7698 35.7818V33.3821C15.1698 33.3821 14.6984 33.2107 14.3556 32.9107C14.0128 32.6107 13.8414 32.1822 13.8414 31.6251V27.597C13.8414 26.3543 13.4557 25.4543 12.6844 24.8973C13.4557 24.3402 13.8414 23.4831 13.8414 22.2832V18.1265C13.8414 17.5694 14.0128 17.1409 14.3556 16.8409C14.6984 16.541 15.1698 16.3696 15.7698 16.3696V13.9698C14.2699 13.9698 13.1129 14.3126 12.2987 14.9983C11.4845 15.6839 11.056 16.7124 11.056 17.998Z" fill="white"/>
</svg>
