<svg width="648" height="113" viewBox="0 0 648 113" fill="none" xmlns="http://www.w3.org/2000/svg">
<path d="M96.2 41.1992C93.9 41.1992 92 43.0992 92 45.3992V84.7992L58 104.299C56 105.399 55.3 107.999 56.5 109.999C57.6 111.999 60.2 112.699 62.2 111.499L100.5 89.5992V45.3992C100.3 43.0992 98.5 41.1992 96.2 41.1992Z" fill="#D9D9D9"/>
<path d="M43.4 104.299L9.4 84.7992V45.3992C9.4 43.0992 7.5 41.1992 5.2 41.1992C2.9 41.1992 1 43.0992 1 45.3992V89.5992L39.3 111.499C41.3 112.599 43.8 111.899 45 109.999C46.1 107.899 45.4 105.399 43.4 104.299Z" fill="#D9D9D9"/>
<path d="M90.4 31.4996C91.6 29.4996 90.9 26.9996 88.9 25.7996L50.7 3.59961L12.5 25.5996C10.5 26.6996 9.80002 29.2996 11 31.2996C12.1 33.2996 14.7 33.9996 16.7 32.7996L50.7 13.1996L84.7 32.9996C86.7 34.1996 89.2 33.4996 90.4 31.4996Z" fill="#D9D9D9"/>
<path d="M96.0998 37.7002C93.7998 37.7002 91.8998 39.6002 91.8998 41.9002V81.3002L57.7998 100.8C55.7998 101.9 55.0998 104.5 56.2998 106.5C57.3998 108.5 59.9998 109.2 61.9998 108L100.3 86.0002V41.8002C100.3 39.5002 98.3998 37.7002 96.0998 37.7002Z" fill="#009EE2"/>
<path d="M43.3999 100.7L9.2999 81.1996V41.7996C9.2999 39.4996 7.3999 37.5996 5.0999 37.5996C2.7999 37.5996 0.899902 39.4996 0.899902 41.7996V85.9996L39.1999 107.9C41.1999 109 43.6999 108.3 44.8999 106.4C46.0999 104.4 45.3999 101.8 43.3999 100.7Z" fill="#009EE2"/>
<path d="M90.3 28C91.5 26 90.8 23.5 88.8 22.3L50.6 0L12.5 22C10.5 23.1 9.80002 25.7 11 27.7C12.1 29.7 14.7 30.4 16.7 29.2L50.7 9.6L84.7 29.4C86.6 30.6 89.2 29.9 90.3 28Z" fill="#009EE2"/>
<path d="M114.6 30.2002V86.0002H122.4V37.7002H146.3V86.0002H154.1V30.2002H114.6Z" fill="black"/>
<path d="M222.7 47.6006C220.2 46.3006 217.3 45.6006 213.8 45.6006C210.3 45.6006 207.4 46.3006 204.9 47.6006C202.4 48.9006 200.6 50.9006 199.3 53.5006C198 56.1006 197.4 59.2006 197.4 62.8006V69.3006C197.4 73.0006 198 76.1006 199.3 78.7006C200.6 81.3006 202.5 83.3006 204.9 84.6006C207.4 86.0006 210.3 86.6006 213.8 86.6006C217.3 86.6006 220.2 85.9006 222.7 84.6006C225.2 83.2006 227 81.3006 228.3 78.7006C229.6 76.1006 230.2 73.0006 230.2 69.4006V62.8006C230.2 59.2006 229.6 56.1006 228.3 53.5006C227 50.9006 225.1 48.9006 222.7 47.6006ZM222.4 69.3006C222.4 72.4006 221.7 74.8006 220.2 76.5006C218.7 78.2006 216.6 79.1006 213.9 79.1006C211.2 79.1006 209.1 78.2006 207.6 76.5006C206.1 74.8006 205.4 72.4006 205.4 69.3006V62.7006C205.4 59.6006 206.1 57.2006 207.6 55.5006C209.1 53.8006 211.2 53.0006 213.9 53.0006C216.6 53.0006 218.7 53.8006 220.2 55.5006C221.7 57.2006 222.4 59.6006 222.4 62.7006V69.3006Z" fill="black"/>
<path d="M308.2 47.6006C305.6 46.3006 302.5 45.6006 298.9 45.6006C296.8 45.6006 294.9 45.8006 293.1 46.3006C291.3 46.8006 289.6 47.5006 288.2 48.5006C286.7 49.4006 285.5 50.6006 284.6 52.0006L290.2 57.1006C291.3 55.8006 292.6 54.8006 294.2 54.1006C295.7 53.4006 297.3 53.1006 298.9 53.1006C301.9 53.1006 304.3 53.9006 305.9 55.6006C307.6 57.3006 308.4 59.7006 308.4 62.7006H291V69.4006H308.2C308.2 72.6006 307.4 75.1006 305.7 76.8006C304 78.6006 301.7 79.5006 298.7 79.5006C297 79.5006 295.5 79.1006 293.9 78.4006C292.4 77.7006 291.1 76.6006 290 75.3006L284.4 80.4006C285.4 81.7006 286.6 82.9006 288.1 83.8006C289.6 84.7006 291.2 85.4006 293 85.9006C294.8 86.4006 296.8 86.6006 298.8 86.6006C302.4 86.6006 305.5 85.9006 308.1 84.6006C310.7 83.2006 312.6 81.3006 314 78.7006C315.4 76.1006 316 73.0006 316 69.3006V62.7006C316 59.1006 315.3 56.0006 314 53.5006C312.7 50.9006 310.8 48.9006 308.2 47.6006Z" fill="black"/>
<path d="M354.4 46.2002H345L334.7 62.3002H330.3V46.2002H322.5V86.0002H330.3V69.7002H334.9L346.3 86.0002H356.8L340.9 65.5002L354.4 46.2002Z" fill="black"/>
<path d="M366.2 55.6006C367.9 53.9006 370.2 53.1006 373.2 53.1006C374.8 53.1006 376.4 53.4006 377.9 54.1006C379.4 54.8006 380.7 55.8006 381.8 57.1006L387.4 52.0006C386.4 50.6006 385.2 49.5006 383.8 48.5006C382.3 47.6006 380.7 46.8006 378.9 46.3006C377.1 45.8006 375.1 45.6006 373.1 45.6006C369.5 45.6006 366.4 46.3006 363.8 47.6006C361.2 48.9006 359.3 50.9006 357.9 53.4006C356.5 56.0006 355.9 59.0006 355.9 62.6006V69.2006C355.9 72.9006 356.6 76.0006 357.9 78.6006C359.3 81.2006 361.2 83.1006 363.8 84.5006C366.4 85.9006 369.5 86.5006 373.1 86.5006C375.1 86.5006 377.1 86.3006 378.9 85.8006C380.7 85.3006 382.4 84.6006 383.8 83.7006C385.3 82.8006 386.5 81.6006 387.5 80.3006L381.9 74.9006C380.8 76.3006 379.5 77.3006 378 78.0006C376.5 78.7006 374.9 79.1006 373.2 79.1006C370.2 79.1006 367.8 78.2006 366.2 76.5006C364.6 74.8006 363.7 72.4006 363.7 69.2006V62.6006C363.7 59.6006 364.5 57.2006 366.2 55.6006Z" fill="black"/>
<path d="M393.4 46.2002V86.0002H401.3V53.6002H418.6V86.0002H426.4V46.2002H393.4Z" fill="black"/>
<path d="M507.9 53.2002H519.4V86.0002H527.3V53.2002H538.8V46.2002H507.9V53.2002Z" fill="black"/>
<path d="M552.2 72.7002V46.2002H544.4V85.9002H551.2L569.4 60.0002V85.9002H577.2V46.2002H570.5L552.2 72.7002Z" fill="black"/>
<path d="M604.6 65.5002C606.5 64.8002 608 63.6002 609 62.0002C610 60.4002 610.6 58.5002 610.6 56.4002C610.6 53.0002 609.4 50.4002 607 48.5002C604.6 46.6002 601.3 45.7002 597 45.7002C593 45.7002 586 47.4002 582.5 54.0002L589.6 57.6002C590.7 54.5002 594.8 52.9002 596.7 52.9002C598.6 52.9002 600.1 53.4002 601.2 54.3002C602.3 55.2002 602.8 56.6002 602.8 58.3002C602.8 59.7002 602.5 60.8002 601.8 61.6002C601.1 62.4002 600.2 62.8002 599 62.8002H592.8V69.5002H599C600.6 69.5002 601.9 69.9002 602.8 70.6002C603.7 71.4002 604.1 72.4002 604.1 73.8002C604.1 75.6002 603.5 77.0002 602.3 77.9002C601.1 78.9002 599.3 79.4002 597.1 79.4002C595.1 79.4002 590.8 77.8002 589.9 74.7002L582.8 78.3002C584.4 81.3002 587.8 84.3002 589.9 85.2002C592 86.1002 594.5 86.6002 597.2 86.6002C601.9 86.6002 605.5 85.5002 608.1 83.4002C610.7 81.2002 612 78.2002 612 74.3002C612 71.8002 611.4 69.9002 610.1 68.3002C608.7 66.7002 606.9 65.8002 604.6 65.5002Z" fill="black"/>
<path d="M185.5 47.6006C183 46.3006 180.1 45.6006 176.6 45.6006C173.7 45.6006 170.4 46.5006 168.3 48.1006V45.6006H160.5V102.101H168.3V84.0006C170.6 85.7006 173.7 86.5006 176.6 86.5006C180 86.5006 183 85.8006 185.5 84.5006C188 83.1006 189.8 81.2006 191.1 78.6006C192.4 76.0006 193 72.9006 193 69.3006V62.7006C193 59.1006 192.4 56.0006 191.1 53.4006C189.8 50.9006 188 48.9006 185.5 47.6006ZM185.2 69.3006C185.2 72.4006 184.5 74.8006 183 76.5006C181.5 78.2006 179.4 79.1006 176.7 79.1006C174 79.1006 171.9 78.2006 170.4 76.5006C169.3 75.3006 168.8 73.5006 168.5 71.6006V60.5006C168.8 58.5006 169.4 56.8006 170.4 55.6006C171.9 53.9006 174 53.1006 176.7 53.1006C179.4 53.1006 181.5 53.9006 183 55.6006C184.5 57.3006 185.2 59.7006 185.2 62.8006V69.3006Z" fill="black"/>
<path d="M274.2 47.6006C271.7 46.3006 268.8 45.6006 265.3 45.6006C264.4 45.6006 263.4 45.7006 262.5 45.9006V34.6006H254.7V46.0006C253.8 45.8006 252.8 45.7006 251.9 45.7006C248.5 45.7006 245.5 46.4006 243 47.7006C240.5 49.0006 238.7 51.0006 237.4 53.6006C236.1 56.2006 235.5 59.3006 235.5 62.9006V69.5006C235.5 73.1006 236.1 76.2006 237.4 78.8006C238.7 81.4006 240.6 83.3006 243 84.7006C245.5 86.1006 248.4 86.7006 251.9 86.7006C252.8 86.7006 253.8 86.6006 254.7 86.4006V97.4006H262.5V86.2006C263.4 86.4006 264.4 86.5006 265.3 86.5006C268.7 86.5006 271.7 85.8006 274.2 84.5006C276.7 83.1006 278.5 81.2006 279.8 78.6006C281.1 76.0006 281.7 72.9006 281.7 69.3006V62.7006C281.7 59.1006 281.1 56.0006 279.8 53.4006C278.5 50.9006 276.6 48.9006 274.2 47.6006ZM251.9 79.3006C249.2 79.3006 247.1 78.4006 245.6 76.7006C244.1 75.0006 243.4 72.6006 243.4 69.5006V62.9006C243.4 59.8006 244.1 57.4006 245.6 55.7006C247.1 54.0006 249.2 53.2006 251.9 53.2006C253 53.2006 253.8 53.4006 254.7 53.7006V78.8006C253.8 79.1006 252.9 79.3006 251.9 79.3006ZM273.9 69.3006C273.9 72.4006 273.2 74.8006 271.7 76.5006C270.2 78.2006 268.1 79.1006 265.4 79.1006C264.3 79.1006 263.4 78.9006 262.6 78.6006V53.5006C263.5 53.2006 264.4 53.0006 265.4 53.0006C268.1 53.0006 270.2 53.8006 271.7 55.5006C273.2 57.2006 273.9 59.6006 273.9 62.7006V69.3006Z" fill="black"/>
<path d="M496.3 47.6006C493.8 46.3006 490.9 45.6006 487.4 45.6006C484.5 45.6006 481.2 46.5006 479.1 48.1006V45.6006H471.3V102.101H479.1V84.0006C481.4 85.7006 484.5 86.5006 487.4 86.5006C490.8 86.5006 493.8 85.8006 496.3 84.5006C498.8 83.1006 500.6 81.2006 501.9 78.6006C503.2 76.0006 503.8 72.9006 503.8 69.3006V62.7006C503.8 59.1006 503.2 56.0006 501.9 53.4006C500.6 50.9006 498.7 48.9006 496.3 47.6006ZM496 69.3006C496 72.4006 495.3 74.8006 493.8 76.5006C492.3 78.2006 490.2 79.1006 487.5 79.1006C484.8 79.1006 482.7 78.2006 481.2 76.5006C480.1 75.3006 479.6 73.5006 479.3 71.6006V60.5006C479.6 58.5006 480.2 56.8006 481.2 55.6006C482.7 53.9006 484.8 53.1006 487.5 53.1006C490.2 53.1006 492.3 53.9006 493.8 55.6006C495.3 57.3006 496 59.7006 496 62.8006V69.3006Z" fill="black"/>
<path d="M463.5 53.5006C462.2 50.9006 460.3 49.0006 457.9 47.6006C455.4 46.3006 452.5 45.6006 449 45.6006C445.6 45.6006 442.6 46.3006 440.1 47.6006C437.6 48.9006 435.8 50.9006 434.5 53.5006C433.2 56.1006 432.6 59.2006 432.6 62.8006V69.3006C432.6 73.0006 433.2 76.1006 434.5 78.7006C435.8 81.3006 437.7 83.3006 440.1 84.6006C442.6 86.0006 445.5 86.6006 449 86.6006C452.4 86.6006 455.4 85.9006 457.9 84.6006C459.8 83.5006 462.6 80.8006 463.9 78.3006L456.8 74.8006C455.3 76.5006 453.3 79.2006 449.1 79.2006C446.4 79.2006 444.3 78.3006 442.8 76.6006C441.3 74.9006 440.6 72.6006 440.6 69.6006H465.6V67.7006V62.8006V62.1006H465.5C465.3 58.8006 464.7 55.9006 463.5 53.5006ZM449 53.0006C451.7 53.0006 453.8 53.8006 455.3 55.5006C456.7 57.1006 457.3 59.3006 457.5 62.0006H440.5C440.6 59.3006 441.3 57.1006 442.7 55.5006C444.2 53.9006 446.3 53.0006 449 53.0006Z" fill="black"/>
<path d="M647.3 62.9006C647.3 59.2006 646.7 56.1006 645.4 53.5006C644.1 50.9006 642.2 48.9006 639.8 47.6006C637.3 46.2006 634.4 45.6006 630.9 45.6006C627.5 45.6006 624.5 46.3006 622 47.6006C620.1 48.7006 618.6 50.2006 617.4 52.1006L624.5 55.6006C626 53.9006 628.1 53.0006 630.8 53.0006C633.5 53.0006 635.6 53.9006 637.1 55.6006C638.4 57.1006 639 59.2006 639.2 61.7006H630.4C627.5 61.7006 624.9 62.2006 622.7 63.1006C620.5 64.1006 618.8 65.5006 617.7 67.4006C616.5 69.3006 616 71.5006 616 74.1006C616 76.6006 616.6 78.9006 617.7 80.8006C618.9 82.7006 620.6 84.1006 622.7 85.1006C624.8 86.0006 627.3 86.5006 630.2 86.5006H631.2C633 86.5006 636.9 85.9006 639.3 84.1006V86.6006H647.1V67.8006V62.9006H647.3ZM631.4 79.0006H630.4C628.2 79.0006 626.6 78.5006 625.6 77.7006C624.5 76.8006 624 75.8006 624 74.1006C624 72.4006 624.5 71.4006 625.6 70.5006C626.7 69.7006 628.3 69.2006 630.6 69.2006H639.5V76.6006C636.2 79.0006 631.4 79.0006 631.4 79.0006Z" fill="black"/>
<path d="M54.5997 39.9996V32.5996H46.6997V45.3996L54.5997 39.9996Z" fill="#009EE2"/>
<path d="M46.6997 51.2994V83.4994H54.5997V45.8994L46.6997 51.2994Z" fill="black"/>
<path d="M75.8996 53.7992C74.9996 53.0992 74.5996 52.0992 74.5996 50.8992V41.9992C74.5996 38.9992 73.5996 36.6992 71.6996 35.0992C69.7996 33.4992 67.0996 32.6992 63.5996 32.6992V38.2992C64.9996 38.2992 66.0996 38.6992 66.8996 39.3992C67.6996 40.0992 68.0996 41.0992 68.0996 42.3992V51.9992C68.0996 54.7992 68.9996 56.8992 70.7996 58.0992C68.9996 59.3992 68.0996 61.4992 68.0996 64.3992V73.7992C68.0996 75.0992 67.6996 76.0992 66.8996 76.7992C66.0996 77.4992 64.9996 77.8992 63.5996 77.8992V83.4992C67.0996 83.4992 69.7996 82.6992 71.6996 81.0992C73.5996 79.4992 74.5996 77.1992 74.5996 74.1992V65.2992C74.5996 63.9992 74.9996 63.0992 75.8996 62.3992C76.7996 61.6992 77.9996 61.2992 79.4996 61.2992V60.0992V56.0992V54.8992C77.9996 54.8992 76.7996 54.4992 75.8996 53.7992Z" fill="black"/>
<path d="M26.6998 41.9996V50.8996C26.6998 52.1996 26.2998 53.0996 25.3998 53.7996C24.4998 54.4996 23.2998 54.8996 21.7998 54.8996V56.0996V60.0996V61.2996C23.3998 61.2996 24.5998 61.6996 25.3998 62.3996C26.2998 63.0996 26.6998 64.0996 26.6998 65.2996V74.1996C26.6998 77.1996 27.6998 79.4996 29.5998 81.0996C31.4998 82.6996 34.1998 83.4996 37.6998 83.4996V77.8996C36.2998 77.8996 35.1998 77.4996 34.3998 76.7996C33.5998 76.0996 33.1998 75.0996 33.1998 73.7996V64.3996C33.1998 61.4996 32.2998 59.3996 30.4998 58.0996C32.2998 56.7996 33.1998 54.7996 33.1998 51.9996V42.2996C33.1998 40.9996 33.5998 39.9996 34.3998 39.2996C35.1998 38.5996 36.2998 38.1996 37.6998 38.1996V32.5996C34.1998 32.5996 31.4998 33.3996 29.5998 34.9996C27.6998 36.5996 26.6998 38.9996 26.6998 41.9996Z" fill="black"/>
</svg>
