<svg width="820" height="67" viewBox="0 0 820 67" fill="none" xmlns="http://www.w3.org/2000/svg">
<rect width="820" height="2" fill="#007ACC"/>
<path d="M341.25 60V42.8672H354.41V60H351.621V45.2578H344.062V60H341.25ZM370.148 53.4844C370.148 54.5625 370.008 55.5195 369.727 56.3555C369.445 57.1914 369.035 57.8984 368.496 58.4766C367.957 59.0469 367.309 59.4844 366.551 59.7891C365.793 60.0859 364.938 60.2344 363.984 60.2344C363.094 60.2344 362.277 60.0859 361.535 59.7891C360.793 59.4844 360.148 59.0469 359.602 58.4766C359.062 57.8984 358.645 57.1914 358.348 56.3555C358.051 55.5195 357.902 54.5625 357.902 53.4844C357.902 52.0547 358.148 50.8438 358.641 49.8516C359.141 48.8516 359.852 48.0898 360.773 47.5664C361.695 47.043 362.793 46.7812 364.066 46.7812C365.262 46.7812 366.316 47.043 367.23 47.5664C368.145 48.0898 368.859 48.8516 369.375 49.8516C369.891 50.8516 370.148 52.0625 370.148 53.4844ZM360.738 53.4844C360.738 54.4297 360.852 55.2383 361.078 55.9102C361.312 56.582 361.672 57.0977 362.156 57.457C362.641 57.8086 363.266 57.9844 364.031 57.9844C364.797 57.9844 365.422 57.8086 365.906 57.457C366.391 57.0977 366.746 56.582 366.973 55.9102C367.199 55.2383 367.312 54.4297 367.312 53.4844C367.312 52.5391 367.199 51.7383 366.973 51.082C366.746 50.418 366.391 49.9141 365.906 49.5703C365.422 49.2188 364.793 49.043 364.02 49.043C362.879 49.043 362.047 49.4258 361.523 50.1914C361 50.957 360.738 52.0547 360.738 53.4844ZM383.906 47.0273V57.8672H385.781V64.5703H383.238V60H374.285V64.5703H371.742V57.8672H372.797C373.453 56.9141 374 55.8516 374.438 54.6797C374.883 53.5078 375.227 52.2734 375.469 50.9766C375.719 49.6719 375.875 48.3555 375.938 47.0273H383.906ZM381.176 49.1367H378.305C378.211 50.1914 378.051 51.2422 377.824 52.2891C377.598 53.3281 377.305 54.3242 376.945 55.2773C376.594 56.2227 376.172 57.0859 375.68 57.8672H381.176V49.1367ZM396.609 47.0273V49.1953H390.961V60H388.195V47.0273H396.609ZM410.602 53.4844C410.602 54.5625 410.461 55.5195 410.18 56.3555C409.898 57.1914 409.488 57.8984 408.949 58.4766C408.41 59.0469 407.762 59.4844 407.004 59.7891C406.246 60.0859 405.391 60.2344 404.438 60.2344C403.547 60.2344 402.73 60.0859 401.988 59.7891C401.246 59.4844 400.602 59.0469 400.055 58.4766C399.516 57.8984 399.098 57.1914 398.801 56.3555C398.504 55.5195 398.355 54.5625 398.355 53.4844C398.355 52.0547 398.602 50.8438 399.094 49.8516C399.594 48.8516 400.305 48.0898 401.227 47.5664C402.148 47.043 403.246 46.7812 404.52 46.7812C405.715 46.7812 406.77 47.043 407.684 47.5664C408.598 48.0898 409.312 48.8516 409.828 49.8516C410.344 50.8516 410.602 52.0625 410.602 53.4844ZM401.191 53.4844C401.191 54.4297 401.305 55.2383 401.531 55.9102C401.766 56.582 402.125 57.0977 402.609 57.457C403.094 57.8086 403.719 57.9844 404.484 57.9844C405.25 57.9844 405.875 57.8086 406.359 57.457C406.844 57.0977 407.199 56.582 407.426 55.9102C407.652 55.2383 407.766 54.4297 407.766 53.4844C407.766 52.5391 407.652 51.7383 407.426 51.082C407.199 50.418 406.844 49.9141 406.359 49.5703C405.875 49.2188 405.246 49.043 404.473 49.043C403.332 49.043 402.5 49.4258 401.977 50.1914C401.453 50.957 401.191 52.0547 401.191 53.4844ZM423.562 49.1953H419.297V60H416.555V49.1953H412.312V47.0273H423.562V49.1953ZM437.555 53.4844C437.555 54.5625 437.414 55.5195 437.133 56.3555C436.852 57.1914 436.441 57.8984 435.902 58.4766C435.363 59.0469 434.715 59.4844 433.957 59.7891C433.199 60.0859 432.344 60.2344 431.391 60.2344C430.5 60.2344 429.684 60.0859 428.941 59.7891C428.199 59.4844 427.555 59.0469 427.008 58.4766C426.469 57.8984 426.051 57.1914 425.754 56.3555C425.457 55.5195 425.309 54.5625 425.309 53.4844C425.309 52.0547 425.555 50.8438 426.047 49.8516C426.547 48.8516 427.258 48.0898 428.18 47.5664C429.102 47.043 430.199 46.7812 431.473 46.7812C432.668 46.7812 433.723 47.043 434.637 47.5664C435.551 48.0898 436.266 48.8516 436.781 49.8516C437.297 50.8516 437.555 52.0625 437.555 53.4844ZM428.145 53.4844C428.145 54.4297 428.258 55.2383 428.484 55.9102C428.719 56.582 429.078 57.0977 429.562 57.457C430.047 57.8086 430.672 57.9844 431.438 57.9844C432.203 57.9844 432.828 57.8086 433.312 57.457C433.797 57.0977 434.152 56.582 434.379 55.9102C434.605 55.2383 434.719 54.4297 434.719 53.4844C434.719 52.5391 434.605 51.7383 434.379 51.082C434.152 50.418 433.797 49.9141 433.312 49.5703C432.828 49.2188 432.199 49.043 431.426 49.043C430.285 49.043 429.453 49.4258 428.93 50.1914C428.406 50.957 428.145 52.0547 428.145 53.4844ZM451.629 50.3555C451.629 51.1055 451.398 51.7188 450.938 52.1953C450.484 52.6641 449.859 52.9727 449.062 53.1211V53.2148C449.914 53.3242 450.625 53.625 451.195 54.1172C451.766 54.6094 452.051 55.293 452.051 56.168C452.051 56.9102 451.863 57.5703 451.488 58.1484C451.121 58.7188 450.535 59.1719 449.73 59.5078C448.934 59.8359 447.891 60 446.602 60H440.719V47.0273H446.578C447.547 47.0273 448.41 47.1328 449.168 47.3438C449.934 47.5547 450.535 47.9023 450.973 48.3867C451.41 48.8711 451.629 49.5273 451.629 50.3555ZM449.18 56.0742C449.18 55.4336 448.934 54.9727 448.441 54.6914C447.957 54.4102 447.246 54.2695 446.309 54.2695H443.484V57.9727H446.367C447.242 57.9727 447.93 57.8281 448.43 57.5391C448.93 57.2422 449.18 56.7539 449.18 56.0742ZM448.828 50.6016C448.828 50.0938 448.637 49.7188 448.254 49.4766C447.871 49.2266 447.27 49.1016 446.449 49.1016H443.484V52.2422H446.074C446.98 52.2422 447.664 52.1133 448.125 51.8555C448.594 51.5898 448.828 51.1719 448.828 50.6016ZM463.195 47.0273H466.23L460.863 53.2617L466.688 60H463.512L457.922 53.4141V60H455.156V47.0273H457.922V53.3203L463.195 47.0273ZM473.883 46.7812C475.523 46.7812 476.762 47.1445 477.598 47.8711C478.441 48.5977 478.863 49.7305 478.863 51.2695V60H476.906L476.379 58.1602H476.285C475.918 58.6289 475.539 59.0156 475.148 59.3203C474.758 59.625 474.305 59.8516 473.789 60C473.281 60.1562 472.66 60.2344 471.926 60.2344C471.152 60.2344 470.461 60.0938 469.852 59.8125C469.242 59.5234 468.762 59.0859 468.41 58.5C468.059 57.9141 467.883 57.1719 467.883 56.2734C467.883 54.9375 468.379 53.9336 469.371 53.2617C470.371 52.5898 471.879 52.2188 473.895 52.1484L476.145 52.0664V51.3867C476.145 50.4883 475.934 49.8477 475.512 49.4648C475.098 49.082 474.512 48.8906 473.754 48.8906C473.105 48.8906 472.477 48.9844 471.867 49.1719C471.258 49.3594 470.664 49.5898 470.086 49.8633L469.195 47.918C469.828 47.582 470.547 47.3086 471.352 47.0977C472.164 46.8867 473.008 46.7812 473.883 46.7812ZM476.133 53.8008L474.457 53.8594C473.082 53.9062 472.117 54.1406 471.562 54.5625C471.008 54.9844 470.73 55.5625 470.73 56.2969C470.73 56.9375 470.922 57.4062 471.305 57.7031C471.688 57.9922 472.191 58.1367 472.816 58.1367C473.77 58.1367 474.559 57.8672 475.184 57.3281C475.816 56.7812 476.133 55.9805 476.133 54.9258V53.8008Z" fill="#007ACC"/>
</svg>
