<svg width="167" height="278" viewBox="0 0 167 278" fill="none" xmlns="http://www.w3.org/2000/svg">
<path d="M0 221.579L83.5 277.329L167 221.579V142.733L0 142.733L0 221.579Z" fill="#333333"/>
<path d="M0 144L167 144L167 -5.60284e-06L83.5 57.6L0 -5.60284e-06L0 144Z" fill="#333333"/>
<path d="M115.021 142.196H109.458V127.362C109.458 125.395 108.677 123.509 107.286 122.118C105.895 120.727 104.009 119.946 102.042 119.946H87.2082V114.383C87.2082 111.924 86.2314 109.566 84.4928 107.828C82.7542 106.089 80.3961 105.112 77.9373 105.112C75.4786 105.112 73.1205 106.089 71.3819 107.828C69.6432 109.566 68.6665 111.924 68.6665 114.383V119.946H53.8332C51.8661 119.946 49.9797 120.727 48.5888 122.118C47.1979 123.509 46.4165 125.395 46.4165 127.362V141.454H51.979C57.5415 141.454 61.9915 145.904 61.9915 151.466C61.9915 157.029 57.5415 161.479 51.979 161.479H46.4165V175.571C46.4165 177.538 47.1979 179.424 48.5888 180.815C49.9797 182.206 51.8661 182.987 53.8332 182.987H67.9248V177.425C67.9248 171.862 72.3748 167.412 77.9373 167.412C83.4998 167.412 87.9498 171.862 87.9498 177.425V182.987H102.042C104.009 182.987 105.895 182.206 107.286 180.815C108.677 179.424 109.458 177.538 109.458 175.571V160.737H115.021C117.479 160.737 119.838 159.761 121.576 158.022C123.315 156.283 124.292 153.925 124.292 151.466C124.292 149.008 123.315 146.65 121.576 144.911C119.838 143.172 117.479 142.196 115.021 142.196Z" fill="#F1F1F1"/>
</svg>
