<svg width="279" height="167" viewBox="0 0 279 167" fill="none" xmlns="http://www.w3.org/2000/svg">
<path d="M222.883 167L278.633 83.5L222.883 0H144.037V167H222.883Z" fill="#333333"/>
<path d="M144.037 167V0H0.974869L58.1996 83.5L0.974869 167H144.037Z" fill="#333333"/>
<path d="M175.021 79.7918H169.458V64.9585C169.458 62.9915 168.677 61.105 167.286 59.7141C165.895 58.3232 164.009 57.5418 162.042 57.5418H147.208V51.9793C147.208 49.5206 146.232 47.1625 144.493 45.4239C142.754 43.6852 140.396 42.7085 137.938 42.7085C135.479 42.7085 133.121 43.6852 131.382 45.4239C129.643 47.1625 128.667 49.5206 128.667 51.9793V57.5418H113.833C111.866 57.5418 109.98 58.3232 108.589 59.7141C107.198 61.105 106.417 62.9915 106.417 64.9585V79.0502H111.979C117.542 79.0502 121.992 83.5002 121.992 89.0627C121.992 94.6252 117.542 99.0752 111.979 99.0752H106.417V113.167C106.417 115.134 107.198 117.02 108.589 118.411C109.98 119.802 111.866 120.583 113.833 120.583H127.925V115.021C127.925 109.458 132.375 105.008 137.938 105.008C143.5 105.008 147.95 109.458 147.95 115.021V120.583H162.042C164.009 120.583 165.895 119.802 167.286 118.411C168.677 117.02 169.458 115.134 169.458 113.167V98.3335H175.021C177.48 98.3335 179.838 97.3568 181.576 95.6181C183.315 93.8795 184.292 91.5214 184.292 89.0627C184.292 86.6039 183.315 84.2458 181.576 82.5072C179.838 80.7686 177.48 79.7918 175.021 79.7918Z" fill="#F1F1F1"/>
</svg>
