<svg width="820" height="67" viewBox="0 0 820 67" fill="none" xmlns="http://www.w3.org/2000/svg">
<rect x="0.5" y="0.5" width="819" height="1" stroke="#333333" stroke-linecap="square" stroke-linejoin="bevel"/>
<path d="M344.23 42.8672C346.441 42.8672 348.055 43.3203 349.07 44.2266C350.086 45.1328 350.594 46.4023 350.594 48.0352C350.594 48.7773 350.477 49.4844 350.242 50.1562C350.016 50.8203 349.641 51.4102 349.117 51.9258C348.594 52.4336 347.902 52.8359 347.043 53.1328C346.191 53.4297 345.141 53.5781 343.891 53.5781H342.062V60H339.25V42.8672H344.23ZM344.043 45.1992H342.062V51.2344H343.598C344.48 51.2344 345.23 51.1328 345.848 50.9297C346.465 50.7188 346.934 50.3867 347.254 49.9336C347.574 49.4805 347.734 48.8828 347.734 48.1406C347.734 47.1484 347.434 46.4102 346.832 45.9258C346.238 45.4414 345.309 45.1992 344.043 45.1992ZM358.902 46.7812C360.059 46.7812 361.051 47.0195 361.879 47.4961C362.707 47.9727 363.344 48.6484 363.789 49.5234C364.234 50.3984 364.457 51.4453 364.457 52.6641V54.1406H355.797C355.828 55.3984 356.164 56.3672 356.805 57.0469C357.453 57.7266 358.359 58.0664 359.523 58.0664C360.352 58.0664 361.094 57.9883 361.75 57.832C362.414 57.668 363.098 57.4297 363.801 57.1172V59.3555C363.152 59.6602 362.492 59.8828 361.82 60.0234C361.148 60.1641 360.344 60.2344 359.406 60.2344C358.133 60.2344 357.012 59.9883 356.043 59.4961C355.082 58.9961 354.328 58.2539 353.781 57.2695C353.242 56.2852 352.973 55.0625 352.973 53.6016C352.973 52.1484 353.219 50.9141 353.711 49.8984C354.203 48.8828 354.895 48.1094 355.785 47.5781C356.676 47.0469 357.715 46.7812 358.902 46.7812ZM358.902 48.8555C358.035 48.8555 357.332 49.1367 356.793 49.6992C356.262 50.2617 355.949 51.0859 355.855 52.1719H361.762C361.754 51.5234 361.645 50.9492 361.434 50.4492C361.23 49.9492 360.918 49.5586 360.496 49.2773C360.082 48.9961 359.551 48.8555 358.902 48.8555ZM372.648 46.7812C374.289 46.7812 375.527 47.1445 376.363 47.8711C377.207 48.5977 377.629 49.7305 377.629 51.2695V60H375.672L375.145 58.1602H375.051C374.684 58.6289 374.305 59.0156 373.914 59.3203C373.523 59.625 373.07 59.8516 372.555 60C372.047 60.1562 371.426 60.2344 370.691 60.2344C369.918 60.2344 369.227 60.0938 368.617 59.8125C368.008 59.5234 367.527 59.0859 367.176 58.5C366.824 57.9141 366.648 57.1719 366.648 56.2734C366.648 54.9375 367.145 53.9336 368.137 53.2617C369.137 52.5898 370.645 52.2188 372.66 52.1484L374.91 52.0664V51.3867C374.91 50.4883 374.699 49.8477 374.277 49.4648C373.863 49.082 373.277 48.8906 372.52 48.8906C371.871 48.8906 371.242 48.9844 370.633 49.1719C370.023 49.3594 369.43 49.5898 368.852 49.8633L367.961 47.918C368.594 47.582 369.312 47.3086 370.117 47.0977C370.93 46.8867 371.773 46.7812 372.648 46.7812ZM374.898 53.8008L373.223 53.8594C371.848 53.9062 370.883 54.1406 370.328 54.5625C369.773 54.9844 369.496 55.5625 369.496 56.2969C369.496 56.9375 369.688 57.4062 370.07 57.7031C370.453 57.9922 370.957 58.1367 371.582 58.1367C372.535 58.1367 373.324 57.8672 373.949 57.3281C374.582 56.7812 374.898 55.9805 374.898 54.9258V53.8008ZM392.16 60H389.383V49.1836H385.785C385.629 51.1523 385.434 52.8359 385.199 54.2344C384.965 55.6328 384.672 56.7734 384.32 57.6562C383.969 58.5312 383.535 59.1719 383.02 59.5781C382.504 59.9844 381.883 60.1875 381.156 60.1875C380.836 60.1875 380.547 60.1641 380.289 60.1172C380.031 60.0781 379.801 60.0156 379.598 59.9297V57.7617C379.73 57.8086 379.875 57.8477 380.031 57.8789C380.188 57.9102 380.348 57.9258 380.512 57.9258C380.801 57.9258 381.066 57.8086 381.309 57.5742C381.559 57.332 381.789 56.9531 382 56.4375C382.211 55.9219 382.402 55.2422 382.574 54.3984C382.746 53.5469 382.902 52.5156 383.043 51.3047C383.184 50.0859 383.309 48.6602 383.418 47.0273H392.16V60ZM398.758 47.0273V53.6484C398.758 53.8594 398.75 54.1289 398.734 54.457C398.727 54.7773 398.711 55.1133 398.688 55.4648C398.664 55.8086 398.641 56.125 398.617 56.4141C398.594 56.7031 398.574 56.918 398.559 57.0586L405.086 47.0273H408.438V60H405.801V53.4492C405.801 53.1055 405.809 52.707 405.824 52.2539C405.848 51.8008 405.871 51.3633 405.895 50.9414C405.926 50.5195 405.945 50.1992 405.953 49.9805L399.449 60H396.109V47.0273H398.758ZM416.43 46.7812C417.383 46.7812 418.238 46.9102 418.996 47.168C419.762 47.418 420.367 47.7969 420.812 48.3047C421.258 48.8125 421.48 49.4453 421.48 50.2031C421.48 50.9844 421.254 51.6094 420.801 52.0781C420.355 52.5391 419.75 52.8711 418.984 53.0742V53.1797C419.523 53.3125 420.012 53.5039 420.449 53.7539C420.887 53.9961 421.234 54.3242 421.492 54.7383C421.758 55.1445 421.891 55.668 421.891 56.3086C421.891 57.0352 421.676 57.6953 421.246 58.2891C420.824 58.8828 420.176 59.3555 419.301 59.707C418.426 60.0586 417.312 60.2344 415.961 60.2344C415.312 60.2344 414.695 60.1992 414.109 60.1289C413.531 60.0664 413.004 59.9766 412.527 59.8594C412.051 59.7344 411.637 59.5859 411.285 59.4141V57.0469C411.824 57.3047 412.477 57.5391 413.242 57.75C414.008 57.9531 414.828 58.0547 415.703 58.0547C416.352 58.0547 416.938 57.9961 417.461 57.8789C417.992 57.7539 418.41 57.5508 418.715 57.2695C419.027 56.9883 419.184 56.6133 419.184 56.1445C419.184 55.7148 419.047 55.3594 418.773 55.0781C418.5 54.7969 418.09 54.5898 417.543 54.457C416.996 54.3164 416.305 54.2461 415.469 54.2461H413.922V52.2188H415.281C416.43 52.2188 417.328 52.0938 417.977 51.8438C418.633 51.5859 418.961 51.1406 418.961 50.5078C418.961 49.9766 418.73 49.5781 418.27 49.3125C417.809 49.0469 417.102 48.9141 416.148 48.9141C415.492 48.9141 414.844 48.9883 414.203 49.1367C413.562 49.2773 412.922 49.4805 412.281 49.7461L411.414 47.7188C412.125 47.4297 412.887 47.2031 413.699 47.0391C414.512 46.8672 415.422 46.7812 416.43 46.7812ZM429.953 46.7812C431.594 46.7812 432.832 47.1445 433.668 47.8711C434.512 48.5977 434.934 49.7305 434.934 51.2695V60H432.977L432.449 58.1602H432.355C431.988 58.6289 431.609 59.0156 431.219 59.3203C430.828 59.625 430.375 59.8516 429.859 60C429.352 60.1562 428.73 60.2344 427.996 60.2344C427.223 60.2344 426.531 60.0938 425.922 59.8125C425.312 59.5234 424.832 59.0859 424.48 58.5C424.129 57.9141 423.953 57.1719 423.953 56.2734C423.953 54.9375 424.449 53.9336 425.441 53.2617C426.441 52.5898 427.949 52.2188 429.965 52.1484L432.215 52.0664V51.3867C432.215 50.4883 432.004 49.8477 431.582 49.4648C431.168 49.082 430.582 48.8906 429.824 48.8906C429.176 48.8906 428.547 48.9844 427.938 49.1719C427.328 49.3594 426.734 49.5898 426.156 49.8633L425.266 47.918C425.898 47.582 426.617 47.3086 427.422 47.0977C428.234 46.8867 429.078 46.7812 429.953 46.7812ZM432.203 53.8008L430.527 53.8594C429.152 53.9062 428.188 54.1406 427.633 54.5625C427.078 54.9844 426.801 55.5625 426.801 56.2969C426.801 56.9375 426.992 57.4062 427.375 57.7031C427.758 57.9922 428.262 58.1367 428.887 58.1367C429.84 58.1367 430.629 57.8672 431.254 57.3281C431.887 56.7812 432.203 55.9805 432.203 54.9258V53.8008ZM452.184 64.5703H449.629V60H438.789V47.0273H441.555V57.832H447.566V47.0273H450.332V57.8789H452.184V64.5703ZM457.211 47.0273V53.6484C457.211 53.8594 457.203 54.1289 457.188 54.457C457.18 54.7773 457.164 55.1133 457.141 55.4648C457.117 55.8086 457.094 56.125 457.07 56.4141C457.047 56.7031 457.027 56.918 457.012 57.0586L463.539 47.0273H466.891V60H464.254V53.4492C464.254 53.1055 464.262 52.707 464.277 52.2539C464.301 51.8008 464.324 51.3633 464.348 50.9414C464.379 50.5195 464.398 50.1992 464.406 49.9805L457.902 60H454.562V47.0273H457.211ZM472.152 60H469.082L472.703 54.7031C472.211 54.5469 471.75 54.3164 471.32 54.0117C470.898 53.6992 470.555 53.293 470.289 52.793C470.023 52.2852 469.891 51.668 469.891 50.9414C469.891 49.6758 470.344 48.707 471.25 48.0352C472.156 47.3633 473.34 47.0273 474.801 47.0273H480.684V60H477.93V54.9844H475.316L472.152 60ZM472.586 50.9648C472.586 51.6211 472.832 52.1211 473.324 52.4648C473.816 52.8008 474.488 52.9688 475.34 52.9688H477.93V49.1016H474.941C474.121 49.1016 473.523 49.2812 473.148 49.6406C472.773 49.9922 472.586 50.4336 472.586 50.9648Z" fill="#333333"/>
</svg>
