<svg width="167" height="278" viewBox="0 0 167 278" fill="none" xmlns="http://www.w3.org/2000/svg">
<path d="M0 221.579L83.5 277.329L167 221.579V142.733L0 142.733L0 221.579Z" fill="#333333"/>
<path d="M0 145L167 145L167 1.54972e-06L83.5 58L0 1.54972e-06L0 145Z" fill="#333333"/>
<path d="M53 181.829V159.61C53 158.36 53.2975 157.173 53.8925 156.048C54.4875 154.923 55.315 154.017 56.375 153.329L60.5 150.61C60.9375 155.86 61.625 160.329 62.5625 164.017C63.5 167.704 64.9687 171.798 66.9687 176.298L53 181.829ZM72.5938 174.329C70.4063 170.204 68.7813 165.829 67.7188 161.204C66.6563 156.579 66.125 151.798 66.125 146.86C66.125 139.048 67.6725 131.688 70.7675 124.78C73.8625 117.873 77.94 112.639 83 109.079C88.0625 112.642 92.1412 117.877 95.2362 124.784C98.3312 131.692 99.8775 139.05 99.875 146.86C99.875 151.735 99.3438 156.47 98.2813 161.065C97.2188 165.66 95.5937 170.082 93.4062 174.329H72.5938ZM83 148.079C85.0625 148.079 86.8288 147.344 88.2988 145.874C89.7688 144.404 90.5025 142.639 90.5 140.579C90.5 138.517 89.765 136.75 88.295 135.28C86.825 133.81 85.06 133.077 83 133.079C80.9375 133.079 79.1712 133.814 77.7012 135.284C76.2312 136.754 75.4975 138.519 75.5 140.579C75.5 142.642 76.235 144.408 77.705 145.878C79.175 147.348 80.94 148.082 83 148.079ZM113 181.829L99.0312 176.298C101.031 171.798 102.5 167.704 103.438 164.017C104.375 160.329 105.062 155.86 105.5 150.61L109.625 153.329C110.688 154.017 111.516 154.923 112.111 156.048C112.706 157.173 113.002 158.36 113 159.61V181.829Z" fill="#F1F1F1"/>
</svg>
