<svg width="278" height="167" viewBox="0 0 278 167" fill="none" xmlns="http://www.w3.org/2000/svg">
<path d="M222.25 167L278 83.5L222.25 0H143.403V167H222.25Z" fill="#333333"/>
<path d="M143.403 167V0H0.34169L57.5664 83.5L0.34169 167H143.403Z" fill="#333333"/>
<path d="M115 121.5V99.2812C115 98.0312 115.297 96.8438 115.892 95.7188C116.487 94.5938 117.315 93.6875 118.375 93L122.5 90.2813C122.938 95.5313 123.625 100 124.563 103.688C125.5 107.375 126.969 111.469 128.969 115.969L115 121.5ZM134.594 114C132.406 109.875 130.781 105.5 129.719 100.875C128.656 96.25 128.125 91.4688 128.125 86.5313C128.125 78.7188 129.672 71.3588 132.767 64.4513C135.862 57.5438 139.94 52.31 145 48.75C150.062 52.3125 154.141 57.5475 157.236 64.455C160.331 71.3625 161.877 78.7213 161.875 86.5313C161.875 91.4063 161.344 96.1412 160.281 100.736C159.219 105.331 157.594 109.752 155.406 114H134.594ZM145 87.75C147.062 87.75 148.829 87.015 150.299 85.545C151.769 84.075 152.502 82.31 152.5 80.25C152.5 78.1875 151.765 76.4212 150.295 74.9513C148.825 73.4813 147.06 72.7475 145 72.75C142.938 72.75 141.171 73.485 139.701 74.955C138.231 76.425 137.497 78.19 137.5 80.25C137.5 82.3125 138.235 84.0788 139.705 85.5487C141.175 87.0187 142.94 87.7525 145 87.75ZM175 121.5L161.031 115.969C163.031 111.469 164.5 107.375 165.438 103.688C166.375 100 167.062 95.5313 167.5 90.2813L171.625 93C172.688 93.6875 173.516 94.5938 174.111 95.7188C174.706 96.8438 175.002 98.0312 175 99.2812V121.5Z" fill="#F1F1F1"/>
</svg>
