<svg width="167" height="278" viewBox="0 0 167 278" fill="none" xmlns="http://www.w3.org/2000/svg">
<path d="M0 221.908L83.5 277.658L167 221.908V143.062H0L0 221.908Z" fill="#007ACC"/>
<path d="M0 145H167V1.54972e-06L83.5 58L0 1.54972e-06L0 145Z" fill="#007ACC"/>
<path d="M75.9167 151.429V148.434L76.9404 147.372C81.3993 151.216 87.0919 153.329 92.9792 153.325C97.8536 153.325 102.619 151.879 106.672 149.171C110.725 146.463 113.884 142.614 115.749 138.111C117.614 133.607 118.102 128.652 117.151 123.871C116.2 119.09 113.853 114.699 110.406 111.252C106.96 107.805 102.568 105.458 97.7873 104.507C93.0065 103.556 88.051 104.044 83.5476 105.909C79.0442 107.775 75.195 110.934 72.4869 114.987C69.7788 119.04 68.3333 123.805 68.3333 128.679C68.3333 134.784 70.5704 140.395 74.2862 144.718L73.2246 145.742H70.2292L51.3087 164.7L56.9583 170.349L75.9167 151.429ZM75.9167 128.679C75.9167 119.238 83.5379 111.617 92.9792 111.617C102.42 111.617 110.042 119.238 110.042 128.679C110.042 138.12 102.42 145.742 92.9792 145.742C83.5379 145.742 75.9167 138.12 75.9167 128.679Z" fill="#F1F1F1"/>
</svg>
