<svg width="278" height="167" viewBox="0 0 278 167" fill="none" xmlns="http://www.w3.org/2000/svg">
<path d="M221.908 167L277.658 83.5L221.908 0H143.062V167H221.908Z" fill="#007ACC"/>
<path d="M143.062 167V0H1.52588e-05L57.2247 83.5L1.52588e-05 167H143.062Z" fill="#007ACC"/>
<path d="M151.429 91.0833H148.434L147.372 90.0596C151.216 85.6007 153.329 79.9081 153.325 74.0208C153.325 69.1464 151.88 64.3813 149.171 60.3284C146.463 56.2754 142.614 53.1164 138.111 51.2511C133.607 49.3857 128.652 48.8976 123.871 49.8486C119.09 50.7995 114.699 53.1468 111.252 56.5936C107.805 60.0404 105.458 64.4319 104.507 69.2127C103.556 73.9935 104.044 78.949 105.909 83.4524C107.775 87.9558 110.934 91.805 114.987 94.5131C119.04 97.2212 123.805 98.6667 128.679 98.6667C134.784 98.6667 140.395 96.4296 144.718 92.7138L145.742 93.7754V96.7708L164.7 115.691L170.35 110.042L151.429 91.0833ZM128.679 91.0833C119.238 91.0833 111.617 83.4621 111.617 74.0208C111.617 64.5796 119.238 56.9583 128.679 56.9583C138.12 56.9583 145.742 64.5796 145.742 74.0208C145.742 83.4621 138.12 91.0833 128.679 91.0833Z" fill="#F1F1F1"/>
</svg>
