<svg width="279" height="167" viewBox="0 0 279 167" fill="none" xmlns="http://www.w3.org/2000/svg">
<path d="M222.566 167L278.317 83.5L222.566 0H143.72V167H222.566Z" fill="#007ACC"/>
<path d="M143.72 167V0H0.658279L57.883 83.5L0.658279 167H143.72Z" fill="#007ACC"/>
<path d="M150.262 50.0531C148.274 43.3156 138.726 43.3156 136.738 50.0531L136.257 51.6894C135.96 52.698 135.441 53.6275 134.738 54.4095C134.035 55.1915 133.166 55.8062 132.195 56.2086C131.224 56.611 130.174 56.7909 129.124 56.7351C128.074 56.6792 127.05 56.3891 126.127 55.8859L124.635 55.0677C118.461 51.7086 111.709 58.4606 115.073 64.6302L115.886 66.1269C118.032 70.0731 115.997 74.9867 111.689 76.2572L110.053 76.7384C103.316 78.726 103.316 88.274 110.053 90.2616L111.689 90.7428C112.698 91.0398 113.627 91.5588 114.409 92.2617C115.191 92.9646 115.806 93.8336 116.209 94.8051C116.611 95.7765 116.791 96.8257 116.735 97.8757C116.679 98.9257 116.389 99.9499 115.886 100.873L115.068 102.365C111.709 108.539 118.461 115.291 124.63 111.927L126.127 111.114C127.05 110.611 128.074 110.321 129.124 110.265C130.174 110.209 131.224 110.389 132.195 110.791C133.166 111.194 134.035 111.809 134.738 112.591C135.441 113.373 135.96 114.302 136.257 115.311L136.738 116.947C138.726 123.684 148.274 123.684 150.262 116.947L150.743 115.311C151.04 114.302 151.559 113.373 152.262 112.591C152.965 111.809 153.834 111.194 154.805 110.791C155.776 110.389 156.826 110.209 157.876 110.265C158.926 110.321 159.95 110.611 160.873 111.114L162.365 111.932C168.539 115.291 175.291 108.539 171.927 102.37L171.114 100.873C170.611 99.9499 170.321 98.9257 170.265 97.8757C170.209 96.8257 170.389 95.7765 170.791 94.8051C171.194 93.8336 171.809 92.9646 172.591 92.2617C173.373 91.5588 174.302 91.0398 175.311 90.7428L176.947 90.2616C183.684 88.274 183.684 78.726 176.947 76.7384L175.311 76.2572C174.302 75.9602 173.373 75.4412 172.591 74.7383C171.809 74.0354 171.194 73.1664 170.791 72.1949C170.389 71.2235 170.209 70.1743 170.265 69.1243C170.321 68.0743 170.611 67.0501 171.114 66.1269L171.932 64.635C175.291 58.4606 168.539 51.7086 162.37 55.0726L160.873 55.8859C159.95 56.3891 158.926 56.6792 157.876 56.7351C156.826 56.7909 155.776 56.611 154.805 56.2086C153.834 55.8062 152.965 55.1915 152.262 54.4095C151.559 53.6275 151.04 52.698 150.743 51.6894L150.262 50.0531ZM143.5 97.6006C139.76 97.6006 136.174 96.115 133.529 93.4706C130.885 90.8263 129.399 87.2397 129.399 83.5C129.399 79.7603 130.885 76.1737 133.529 73.5294C136.174 70.885 139.76 69.3994 143.5 69.3994C147.238 69.3994 150.824 70.8845 153.467 73.5279C156.111 76.1714 157.596 79.7567 157.596 83.4952C157.596 87.2336 156.111 90.819 153.467 93.4624C150.824 96.1059 147.238 97.591 143.5 97.591V97.6006Z" fill="#F1F1F1"/>
</svg>
