<svg width="167" height="278" viewBox="0 0 167 278" fill="none" xmlns="http://www.w3.org/2000/svg">
<path d="M0 221.908L83.5 277.658L167 221.908V143.062H0L0 221.908Z" fill="#007ACC"/>
<path d="M0 145H167V1.54972e-06L83.5 58L0 1.54972e-06L0 145Z" fill="#007ACC"/>
<path d="M116.947 149.603C123.684 147.616 123.684 138.068 116.947 136.08L115.311 135.599C114.302 135.302 113.373 134.783 112.591 134.08C111.809 133.377 111.194 132.508 110.791 131.537C110.389 130.565 110.209 129.516 110.265 128.466C110.321 127.416 110.611 126.392 111.114 125.469L111.932 123.977C115.291 117.802 108.539 111.05 102.37 114.414L100.873 115.228C96.9269 117.374 92.0133 115.338 90.7428 111.031L90.2616 109.395C88.274 102.657 78.726 102.657 76.7384 109.395L76.2572 111.031C75.9602 112.04 75.4412 112.969 74.7383 113.751C74.0354 114.533 73.1664 115.148 72.1949 115.55C71.2235 115.953 70.1743 116.133 69.1243 116.077C68.0743 116.021 67.0501 115.731 66.1269 115.228L64.635 114.41C58.4606 111.05 51.7086 117.802 55.0726 123.972L55.8859 125.469C56.3891 126.392 56.6792 127.416 56.7351 128.466C56.7909 129.516 56.611 130.565 56.2086 131.537C55.8062 132.508 55.1915 133.377 54.4095 134.08C53.6275 134.783 52.6981 135.302 51.6894 135.599L50.0531 136.08C43.3156 138.068 43.3156 147.616 50.0531 149.603L51.6894 150.085C52.6981 150.382 53.6275 150.901 54.4095 151.603C55.1915 152.306 55.8062 153.175 56.2086 154.147C56.611 155.118 56.7909 156.167 56.7351 157.217C56.6792 158.267 56.3891 159.292 55.8859 160.215L55.0677 161.707C51.7086 167.881 58.4606 174.633 64.6302 171.269L66.1269 170.456C67.0501 169.953 68.0743 169.663 69.1243 169.607C70.1743 169.551 71.2235 169.731 72.1949 170.133C73.1664 170.536 74.0354 171.15 74.7383 171.932C75.4412 172.714 75.9602 173.644 76.2572 174.652L76.7384 176.289C78.726 183.026 88.274 183.026 90.2616 176.289L90.7428 174.652C91.0398 173.644 91.5588 172.714 92.2617 171.932C92.9646 171.15 93.8336 170.536 94.8051 170.133C95.7765 169.731 96.8257 169.551 97.8757 169.607C98.9257 169.663 99.9499 169.953 100.873 170.456L102.365 171.274C108.539 174.633 115.291 167.881 111.927 161.712L111.114 160.215C110.611 159.292 110.321 158.267 110.265 157.217C110.209 156.167 110.389 155.118 110.791 154.147C111.194 153.175 111.809 152.306 112.591 151.603C113.373 150.901 114.302 150.382 115.311 150.085L116.947 149.603ZM69.3994 142.842C69.3994 139.102 70.885 135.516 73.5294 132.871C76.1737 130.227 79.7603 128.741 83.5 128.741C87.2397 128.741 90.8263 130.227 93.4706 132.871C96.115 135.516 97.6006 139.102 97.6006 142.842C97.6006 146.58 96.1155 150.166 93.4721 152.809C90.8286 155.453 87.2433 156.938 83.5048 156.938C79.7664 156.938 76.181 155.453 73.5376 152.809C70.8941 150.166 69.409 146.58 69.409 142.842H69.3994Z" fill="#F1F1F1"/>
</svg>
