<svg width="576" height="391" viewBox="0 0 576 391" fill="none" xmlns="http://www.w3.org/2000/svg">
<g clip-path="url(#clip0_1_490)">
<path d="M472.069 373.627L466.081 372.091L469.703 341.898L478.54 344.165L472.069 373.627Z" fill="#FFB6B6"/>
<path d="M448.427 381.413C448.166 382.513 448.668 383.608 449.548 383.857L461.362 387.211C461.362 387.211 463.737 382.429 468.999 381.575L467.592 388.98L473.686 390.71L475.737 378.743C475.737 378.743 478.86 372.915 476.237 368.738C473.614 364.562 476.25 365.788 476.25 365.788L476.645 358.132L467.154 356.703L464.376 368.107L457.217 378.177L449.822 379.858C449.163 380.008 448.615 380.619 448.427 381.413Z" fill="#2F2E41"/>
<path d="M529.477 366.503L524.015 369.598L508.813 344.088L516.873 339.521L529.477 366.503Z" fill="#FFB6B6"/>
<path d="M516.15 389.24C516.606 390.261 517.638 390.735 518.455 390.299L529.422 384.44C529.422 384.44 528.383 379.117 531.871 374.724L535.205 381.35L540.863 378.328L535.305 367.779C535.305 367.779 534.211 361.131 529.736 359.825C525.26 358.519 527.991 357.574 527.991 357.574L523.739 351.479L515.68 357.146L520.352 367.784L520.902 380.527L516.285 387.067C515.874 387.649 515.821 388.503 516.15 389.24Z" fill="#2F2E41"/>
<path d="M209.17 254.362H367.901C369.899 254.362 371.519 252.59 371.519 250.404V4.69849C371.519 2.51241 369.899 0.740234 367.901 0.740234H209.17C207.172 0.740234 205.552 2.51241 205.552 4.69849V250.404C205.552 252.59 207.172 254.362 209.17 254.362Z" fill="white"/>
<path d="M372.196 255.103H204.875V0H372.196V255.103ZM206.229 253.622H370.842V1.48078H206.229V253.622Z" fill="#E6E6E6"/>
<path d="M334.594 40.8662C335.238 40.8662 335.76 41.4373 335.76 42.1419V44.6933C335.76 45.3978 335.238 45.969 334.594 45.969H242.478C241.834 45.969 241.312 45.3978 241.312 44.6933V42.1419C241.312 41.4374 241.834 40.8662 242.478 40.8662H334.594Z" fill="#E6E6E6"/>
<path d="M334.594 52.9834C335.238 52.9834 335.76 53.5545 335.76 54.2591V56.8105C335.76 57.515 335.238 58.0861 334.594 58.0861H242.478C241.834 58.0861 241.312 57.515 241.312 56.8105V54.2591C241.312 53.5546 241.834 52.9834 242.478 52.9834H334.594Z" fill="#E6E6E6"/>
<path d="M334.594 65.1016C335.238 65.1016 335.76 65.6727 335.76 66.3772V68.9286C335.76 69.6332 335.238 70.2043 334.594 70.2043H242.478C241.834 70.2043 241.312 69.6332 241.312 68.9286V66.378C241.312 65.6735 241.834 65.1023 242.478 65.1023L334.594 65.1016Z" fill="#007ACC"/>
<path d="M504.143 96.8925H534.742C534.697 95.3198 535.002 93.7588 535.632 92.3441C535.649 93.914 535.965 95.4628 536.558 96.8925H537.948C540.074 96.8901 541.797 95.0055 541.799 92.68V70.929C541.798 60.2793 533.474 44.3145 524.429 50.995C524.137 50.9784 519.552 48.7568 519.261 48.7568C511.304 48.7639 508.567 56.6188 506.164 64.9168C503.426 63.5365 501.54 69.2979 500.175 79.4386C499.777 82.3979 499.423 85.7301 499.105 89.3666C498.228 92.4177 499.778 95.6691 502.567 96.6286C503.078 96.8043 503.61 96.8942 504.145 96.8954L504.143 96.8925Z" fill="#2F2E41"/>
<path d="M444.099 221.244C442.583 225.177 443.208 229.222 445.496 230.278C447.785 231.334 450.869 229.001 452.386 225.066C453.012 223.503 453.286 221.799 453.187 220.096L459.423 203.34L452.172 200.306L446.792 217.148C445.608 218.258 444.684 219.662 444.097 221.243L444.099 221.244Z" fill="#FFB6B6"/>
<path d="M511.143 89.5303L525.768 92.877L523.525 100.239L528.011 156.545L520.534 174.674L474.921 170.584L486.137 146.043C486.137 146.043 481.65 125.594 487.633 121.502C493.615 117.411 503.336 96.9614 503.336 96.9614L511.143 89.5303Z" fill="#007ACC"/>
<path d="M524.776 96.133L537.733 101.872L533.246 173.854L542.967 236.021L511.561 241.747C511.561 241.747 515.3 104.326 517.543 101.872C519.786 99.4175 524.776 96.1294 524.776 96.1294V96.133Z" fill="#2F2E41"/>
<path d="M499.4 105.11C499.4 105.11 490.97 99.2754 486.415 103.596C481.86 107.916 446.792 212.351 446.792 212.351L456.251 216.847L477.944 167.092L499.4 105.11Z" fill="#2F2E41"/>
<path d="M475.25 281.072L466.697 352.996L478.661 353.814C478.661 353.814 484.882 335.246 491.979 313.373C493.489 308.735 495.037 303.95 496.57 299.157C498.23 293.955 499.883 288.752 501.452 283.73C505.333 271.346 508.736 260.073 510.68 252.712C511.016 251.42 511.315 250.251 511.562 249.219C516.793 227.231 519.786 169.771 519.786 169.771L476.416 165.681L475.953 166.311L466.697 178.965L467.13 181.64L478.661 252.388L475.252 281.075L475.25 281.072Z" fill="#2F2E41"/>
<path d="M478.659 252.387L475.25 281.074L490.586 310.61L491.976 313.374L513.092 355.353L523.524 348.883C523.524 348.883 509.952 314.764 501.45 283.73C500.507 280.319 499.633 276.94 498.848 273.652C496.537 264.024 500.321 246.454 498.84 241.611C493.838 225.268 477.537 192.573 469.969 177.761L467.128 181.639L478.659 252.387Z" fill="#2F2E41"/>
<path d="M503.524 96.3452L488.383 102.693L448.752 229.481L472.68 233.571L483.896 159.953L503.524 96.3452Z" fill="#2F2E41"/>
<path d="M541.39 233.202C541.775 237.451 544.091 240.678 546.563 240.409C549.035 240.14 550.726 236.479 550.34 232.229C550.207 230.529 549.704 228.888 548.873 227.444L547.033 209.465L539.338 210.589L541.969 228.194C541.413 229.789 541.214 231.506 541.39 233.202Z" fill="#FFB6B6"/>
<path d="M532.497 101.875C532.497 101.875 542.218 99.4212 545.209 105.147C548.2 110.874 549.696 222.12 549.696 222.12L539.41 222.938L533.993 168.135L532.497 101.877L532.497 101.875Z" fill="#2F2E41"/>
<path d="M520.091 87.5461C528.676 87.5461 535.635 79.9333 535.635 70.5426C535.635 61.1518 528.676 53.5391 520.091 53.5391C511.507 53.5391 504.548 61.1518 504.548 70.5426C504.548 79.9333 511.507 87.5461 520.091 87.5461Z" fill="#FFB6B6"/>
<path d="M526.331 96.8918H534.007C534.397 96.8918 534.729 96.5629 534.747 96.1367L534.749 96.0897C534.791 95.2013 535.93 95.0518 536.195 95.8931C536.301 96.2314 536.422 96.5648 536.558 96.8918H537.313V70.6777C537.313 66.1815 533.981 62.5366 529.871 62.5366C526.362 62.5366 523.329 65.2182 522.594 68.9718C522.594 68.9718 517.377 75.9713 520.452 79.9065C523.527 83.8418 519.054 87.0448 519.054 87.0448C518.061 92.1128 521.592 96.8918 526.331 96.8918Z" fill="#2F2E41"/>
<path d="M271.819 127.427C273.542 126.211 273.905 123.611 272.7 121.797L267.055 113.301C265.737 111.314 263.196 110.873 261.38 112.315C261.22 112.443 261.067 112.583 260.925 112.735C251.368 118.325 246.223 126.487 251.943 136.136C251.943 137.748 252.051 139.357 252.265 140.951C252.358 141.643 252.57 142.319 252.931 142.897C254.003 144.61 255.893 145.239 257.556 144.646L266.788 141.365C268.749 140.668 269.811 138.326 269.086 136.214C268.15 133.484 268.536 129.743 271.819 127.427Z" fill="#F2F2F2"/>
<path d="M293.729 152.489C291.073 152.202 288.806 154.596 288.806 157.516V166.227C288.806 166.453 288.822 166.678 288.853 166.901C289.194 169.329 291.27 170.994 293.489 170.621C306.426 172.365 315.267 166.21 315.799 152.708C315.884 152.518 315.956 152.322 316.016 152.122C316.705 149.789 315.535 147.286 313.402 146.531L305.673 143.784C303.007 142.837 300.235 144.73 299.769 147.754C299.347 150.486 297.699 152.918 293.729 152.489Z" fill="#E6E6E6"/>
<path d="M245.944 161.007C248.626 178.426 262.598 185.034 277.17 186.079C277.455 186.127 277.744 186.151 278.032 186.151C281.175 186.153 283.724 183.367 283.726 179.929V165.363C283.726 161.288 280.673 158.115 276.949 158.074C273.348 158.034 271.002 156.17 270.038 152.748C268.936 148.839 265.01 146.778 261.454 148.042L249.299 152.363C247.725 152.922 246.451 154.203 245.808 155.871C245.169 157.524 245.219 159.398 245.944 161.007Z" fill="#3F3D56"/>
<path d="M320.823 100.776C318.58 98.3723 314.981 98.4131 312.783 100.867C312.588 101.085 312.407 101.319 312.243 101.567L301.443 117.828C300.063 119.907 300.852 122.804 303.01 123.819C308.066 126.197 307.535 131.535 305.889 134.802C305.082 136.403 305.748 138.407 307.337 138.972L325.536 145.44C328.53 146.498 331.741 144.7 332.708 141.425C332.805 141.095 332.877 140.757 332.923 140.414C333.236 138.135 333.393 135.833 333.393 133.528C336.471 120.97 332.211 109.132 320.823 100.776Z" fill="#007ACC"/>
<path d="M289.57 119.631C291.587 120.873 294.13 120.272 295.491 118.224L299.109 112.777C299.812 111.721 300.055 110.381 299.776 109.111C299.507 107.864 298.751 106.809 297.709 106.225C289.194 97.8103 279.118 97.2939 270.573 106.182C269.499 106.775 268.717 107.854 268.434 109.134C268.155 110.395 268.397 111.726 269.095 112.775L273.323 119.141C274.775 121.328 277.588 121.9 279.59 120.315C282.497 118.012 286.721 117.876 289.57 119.631Z" fill="#E6E6E6"/>
<path d="M576 389.417H0V390.662H576V389.417Z" fill="#E6E6E6"/>
<path d="M241.903 229.366C242.228 227.862 243.753 227.367 245.001 227.424C245.789 227.482 246.57 227.618 247.336 227.829C248.138 228.025 248.932 228.257 249.721 228.503C251.17 228.955 252.603 229.501 254.075 229.854C255.31 230.224 256.61 230.245 257.854 229.915C259.051 229.555 259.993 228.545 260.345 227.242C260.702 225.998 260.188 224.653 259.127 224.058C258.145 223.466 256.91 223.857 256.368 224.932C256.36 224.948 256.353 224.964 256.345 224.98C255.89 226.305 256.247 227.8 257.236 228.712C257.743 229.233 258.299 229.694 258.894 230.089C259.497 230.539 260.169 230.868 260.878 231.061C262.084 231.411 263.358 230.867 264.028 229.716C264.162 229.44 264.242 229.138 264.264 228.827C264.299 228.405 263.695 228.407 263.66 228.827C263.558 230.039 262.262 230.604 261.291 230.472C260.637 230.354 260.012 230.088 259.456 229.693C258.919 229.35 258.41 228.958 257.935 228.519C257.112 227.74 256.341 226.46 256.894 225.245C257.324 224.464 258.251 224.212 258.964 224.682C259.06 224.745 259.148 224.819 259.229 224.903C260.092 225.676 259.938 227.078 259.369 227.996C258.685 228.954 257.629 229.505 256.517 229.483C255.346 229.486 254.181 229.286 253.066 228.891C251.675 228.459 250.298 227.976 248.901 227.569C248.108 227.338 247.309 227.13 246.501 226.967C245.737 226.783 244.953 226.724 244.174 226.791C242.857 226.859 241.719 227.815 241.319 229.189C241.231 229.604 241.813 229.78 241.903 229.366Z" fill="#3F3D56"/>
<path d="M265.807 212.151C265.989 212.151 266.137 212.722 266.137 213.427V215.978C266.137 216.683 265.989 217.254 265.807 217.254H239.771C239.589 217.254 239.441 216.683 239.441 215.978V213.427C239.441 212.722 239.589 212.151 239.771 212.151H265.807Z" fill="#E6E6E6"/>
<path d="M335.43 212.151C335.613 212.151 335.76 212.722 335.76 213.427V215.978C335.76 216.683 335.613 217.254 335.43 217.254H309.394C309.212 217.254 309.065 216.683 309.065 215.978V213.427C309.065 212.722 309.212 212.151 309.394 212.151H335.43Z" fill="#E6E6E6"/>
<path d="M323.838 226.522L318.67 228.391L316.085 229.325C315.292 229.696 314.433 229.869 313.57 229.831C312.934 229.785 312.374 229.351 312.123 228.709C312.013 228.066 312.266 227.413 312.765 227.052C313.998 226.025 315.558 227.07 316.432 228.133C317.501 229.433 318.106 231.111 319.108 232.472C320 233.694 321.132 234.68 322.419 235.36C324.992 236.755 328.06 236.468 330.379 234.615C333.103 232.317 333.381 228.332 333.395 224.856C333.385 224.522 333.128 224.261 332.823 224.272C332.533 224.283 332.3 224.538 332.29 224.856C332.277 228.006 332.113 231.868 329.487 233.84C326.972 235.728 323.667 235.227 321.35 233.215C320.156 232.052 319.163 230.664 318.418 229.117C317.591 227.637 316.564 226.207 315.007 225.632C313.631 225.085 312.093 225.673 311.327 227.039C310.668 228.254 311.033 229.823 312.144 230.545C312.23 230.601 312.319 230.65 312.41 230.694C314.215 231.635 316.28 230.532 318.018 229.904L324.134 227.693C324.806 227.45 324.518 226.282 323.84 226.527L323.838 226.522Z" fill="#007ACC"/>
<path d="M94.1782 367.233C94.1108 367.168 94.0588 367.134 94.0237 367.135C93.1805 367.143 92.4293 367.627 92.0152 368.427L82.9366 386.871C82.729 387.273 82.6271 387.712 82.6306 388.15C82.6341 388.588 82.743 389.025 82.9569 389.423C83.3849 390.217 103.435 390.503 103.435 390.503C104.278 390.495 106.592 379.148 94.1782 367.233Z" fill="#E6E6E6"/>
<path d="M59.4791 386.034L66.3699 385.968L69.4159 356.861L59.2457 356.959L59.4791 386.034Z" fill="#FFB6B6"/>
<path d="M83.0866 385.638C83.3043 386.031 83.4277 387.306 83.4313 387.765C83.4426 389.178 82.4047 390.334 81.113 390.346L59.7729 390.55C58.8917 390.558 58.1711 389.784 58.1634 388.82L58.1557 387.848C58.1557 387.848 57.0767 384.937 59.2214 381.316C59.2214 381.316 61.9452 384.109 65.9464 379.655L67.1179 377.285L75.7891 384.096L80.5701 384.693C81.616 384.824 82.5412 384.652 83.0866 385.638Z" fill="#2F2E41"/>
<path d="M85.6945 360.905L92.2418 363.256L103.649 336.75L93.986 333.279L85.6945 360.905Z" fill="#FFB6B6"/>
<path d="M108.175 368.8C108.266 369.249 108.009 370.5 107.878 370.936C107.475 372.279 106.154 373.01 104.926 372.569L84.6508 365.285C83.8135 364.985 83.3577 363.998 83.6326 363.083L83.9098 362.159C83.9098 362.159 83.7399 359.024 86.8319 356.345C86.8319 356.345 88.5944 359.945 93.6888 357.127L95.4926 355.292L101.713 364.783L106.067 367.024C107.02 367.514 107.946 367.676 108.175 368.8Z" fill="#2F2E41"/>
<path d="M94.9393 192.136L108.707 240.425L124.846 283.823L100.382 346.271L86.7702 340.47L98.953 286.421L78.1275 246.066L68.2857 367.211L56.3131 365.643L40.7462 220.527L43.1876 188.97L94.9393 192.136Z" fill="#2F2E41"/>
<path d="M80.8534 82.1865L65.9781 78.2588L61.8746 88.9204C61.8746 88.9204 41.7736 92.635 40.7462 109.468C40.7462 109.468 36.74 131.565 39.3045 137.738C41.869 143.91 48.1912 165.738 48.1912 165.738C48.1912 165.738 38.181 192.932 40.7462 194.613C43.3113 196.294 98.2762 202.422 98.2762 199.055C98.2762 195.689 98.9036 155.691 98.9036 155.691L96.7513 95.09L82.9055 89.4816L80.8534 82.1865Z" fill="#E6E6E6"/>
<path d="M78.3359 79.4756C86.6145 79.4756 93.3258 72.1341 93.3258 63.0779C93.3258 54.0217 86.6145 46.6802 78.3359 46.6802C70.0572 46.6802 63.3459 54.0217 63.3459 63.0779C63.3459 72.1341 70.0572 79.4756 78.3359 79.4756Z" fill="#FFB6B6"/>
<path d="M68.4101 65.5151C69.6065 66.231 68.4727 69.6515 69.2204 69.9469C70.0846 70.2883 73.2341 66.3639 73.2717 61.9696C73.2831 60.6397 73.0031 60.0012 73.2717 58.4242C73.623 56.3614 74.7025 53.9282 75.7025 53.9924C76.2953 54.0304 76.8745 54.947 76.9179 55.7651C76.9788 56.9117 75.9608 57.3634 76.1076 57.981C76.3873 59.1574 80.6631 59.968 82.1846 57.981C83.3775 56.4233 82.4614 53.6894 82.9949 53.5492C83.3881 53.4458 83.8108 54.951 85.4257 56.6515C86.0341 57.2921 86.939 58.2449 87.4513 57.981C88.1917 57.5997 87.6529 54.9144 87.8565 54.8788C88.0251 54.8492 88.1315 56.7367 89.0719 58.4242C90.28 60.5922 92.7715 62.2626 93.9335 61.5265C94.6454 61.0754 94.7013 59.8205 94.7437 58.8674C94.8331 56.8594 97.4992 52.2397 96.8084 50.0919C95.4025 45.7206 92.9967 48.8033 91.9078 47.3447C90.4336 45.3701 89.1119 46.4325 86.6411 44.2424C84.2274 42.1029 84.2056 39.9516 82.5898 39.8106C81.1345 39.6836 80.6176 41.3819 78.9436 41.1401C77.5255 40.9353 77.2165 39.6184 76.1076 39.8106C75.0924 39.9865 75.0258 41.1468 73.6768 41.5833C72.8156 41.862 72.6262 41.4592 71.6512 41.5833C69.6223 41.8416 68.2601 43.8636 68.005 44.2424C67.0213 45.7026 67.4034 46.318 66.3844 47.7878C65.5058 49.0554 63.5577 48.518 62.8254 49.1512C60.4329 51.2201 59.4057 55.0343 59.3864 59.3811C59.3728 62.4214 59.7357 63.9574 60.5455 67.7946C61.1604 70.7083 64.0057 74.4728 65.5742 76.1514C65.9952 76.602 67.1755 77.8651 68.005 77.481C68.791 77.1169 68.8143 75.481 68.8152 75.2651C68.8185 74.5222 68.6374 73.6031 67.1947 71.2764C65.6793 68.8324 65.0775 68.5537 65.1691 67.731C65.3309 66.2767 67.4565 64.9445 68.4101 65.5151Z" fill="#2F2E41"/>
<path d="M26.0204 229.073C25.4983 233.842 27.3237 238.002 30.0975 238.365C32.8713 238.728 35.5431 235.158 36.0651 230.389C36.2936 228.302 36.0722 226.332 35.5185 224.745L37.4987 204.511L28.7987 203.696L27.7699 223.73C26.8894 225.129 26.2489 226.986 26.0204 229.073Z" fill="#FFB6B6"/>
<path d="M51.0715 94.6968C51.0715 94.6968 46.564 94.7652 43.5775 101.14C41.9905 104.528 31.6749 165.247 31.6749 165.247L28.7769 184.45L30.2663 187.626C27.8987 191.588 27.2469 196.489 28.4846 201.024L25.6531 219.786L38.9674 219.865L49.3579 170.714L58.0945 142.209L51.0715 94.6968Z" fill="#E6E6E6"/>
<path d="M119.093 228.333C119.615 233.101 117.79 237.261 115.016 237.625C112.242 237.988 109.571 234.417 109.049 229.649C108.82 227.562 109.042 225.591 109.595 224.005L107.615 203.77L116.315 202.956L117.344 222.99C118.224 224.388 118.865 226.246 119.093 228.333Z" fill="#FFB6B6"/>
<path d="M94.0423 93.9565C94.0423 93.9565 98.5497 94.025 101.536 100.4C103.123 103.788 113.439 164.506 113.439 164.506L116.337 183.71L114.847 186.886C117.215 190.847 117.867 195.749 116.629 200.284L119.461 219.046L106.146 219.125L95.7559 169.974L87.0193 141.469L94.0423 93.9565Z" fill="#E6E6E6"/>
<path d="M501.408 68.0173C501.96 69.0074 504.894 65.3848 509.399 64.9853C510.546 64.8811 513.131 69.6849 516.097 69.7544C518.063 69.7978 519.273 69.7804 521.693 69.7544C524.554 69.7196 525.338 69.6502 525.89 68.8858C526.961 67.4006 526.079 64.7601 526.59 64.543C527.017 64.3606 528.122 65.9935 528.688 68.0173C529.878 72.2645 525.611 78.1794 525.191 83.6514C524.743 89.5489 529.15 78.2489 528.688 83.6514C528.171 89.7313 526.317 89.271 526.338 91.4684C526.345 91.7985 526.422 92.0851 526.59 92.337C526.737 92.5628 526.884 92.6497 529.388 93.2056C532.382 93.8743 533.886 94.2044 534.285 94.0741C535.313 93.7441 536.355 91.9114 537.083 90.5999C538.286 88.4545 537.432 90.6172 537.083 87.9942C536.747 85.458 535.698 85.128 535.684 82.7828C535.67 79.8297 537.327 78.9351 538.482 75.8343C540.615 70.1018 538.531 63.466 537.782 61.0687C537.423 59.9191 536.771 58.4641 535.628 56.0601C534.711 54.1302 533.493 52.4301 532.008 51.1563C529.783 49.2471 527.198 47.9389 524.403 47.4206C522.872 47.1367 521.311 47.2858 519.806 47.7348L515.907 48.8979C514.269 49.3868 512.724 50.2728 511.362 51.5052C510.092 51.5105 508.991 52.5293 508.556 54.0102C508.511 54.1651 508.469 54.2554 508.435 54.2421C501.408 51.5146 501.412 59.5932 501.489 64.6399C501.497 65.1564 501.482 65.6135 501.429 65.9848V66.0109C501.289 67.0097 501.254 67.7393 501.408 68.0173Z" fill="#2F2E41"/>
<path d="M410.057 112.634H336.076V114.114H410.057V112.634Z" fill="#3F3D56"/>
<path d="M424.948 122.977C419.723 122.977 415.472 118.328 415.472 112.612C415.472 106.896 419.723 102.247 424.948 102.247C430.172 102.247 434.423 106.896 434.423 112.612C434.423 118.328 430.172 122.977 424.948 122.977ZM424.948 103.727C420.469 103.727 416.826 107.713 416.826 112.612C416.826 117.511 420.469 121.497 424.948 121.497C429.426 121.497 433.069 117.511 433.069 112.612C433.069 107.713 429.426 103.727 424.948 103.727Z" fill="#3F3D56"/>
<path d="M424.948 117.795C427.564 117.795 429.685 115.474 429.685 112.612C429.685 109.75 427.564 107.429 424.948 107.429C422.331 107.429 420.21 109.75 420.21 112.612C420.21 115.474 422.331 117.795 424.948 117.795Z" fill="#007ACC"/>
<path d="M241.059 167.422H167.078V168.902H241.059V167.422Z" fill="#3F3D56"/>
<path d="M142.712 167.401C142.712 161.685 146.963 157.035 152.188 157.035C157.412 157.035 161.663 161.685 161.663 167.401C161.663 173.116 157.412 177.766 152.188 177.766C146.963 177.766 142.712 173.116 142.712 167.401ZM144.066 167.401C144.066 172.3 147.709 176.285 152.188 176.285C156.666 176.285 160.309 172.3 160.309 167.401C160.309 162.502 156.666 158.516 152.188 158.516C147.709 158.516 144.066 162.502 144.066 167.401Z" fill="#3F3D56"/>
<path d="M152.188 172.583C154.804 172.583 156.925 170.263 156.925 167.4C156.925 164.538 154.804 162.218 152.188 162.218C149.571 162.218 147.45 164.538 147.45 167.4C147.45 170.263 149.571 172.583 152.188 172.583Z" fill="#007ACC"/>
</g>
<defs>
<clipPath id="clip0_1_490">
<rect width="576" height="390.71" fill="white"/>
</clipPath>
</defs>
</svg>
