<svg width="167" height="278" viewBox="0 0 167 278" fill="none" xmlns="http://www.w3.org/2000/svg">
<path d="M0 221.908L83.5 277.658L167 221.908V143.062L0 143.062L0 221.908Z" fill="#333333"/>
<path d="M0 145L167 145L167 1.54972e-06L83.5 58L0 1.54972e-06L0 145Z" fill="#333333"/>
<path d="M110.042 111.6H94.1925C93.4161 109.384 91.9701 107.463 90.0545 106.105C88.139 104.746 85.8485 104.016 83.5 104.016C81.1515 104.016 78.861 104.746 76.9455 106.105C75.0299 107.463 73.5839 109.384 72.8075 111.6H56.9583C54.949 111.606 53.0236 112.407 51.6027 113.828C50.1819 115.249 49.381 117.174 49.375 119.184V172.267C49.381 174.276 50.1819 176.202 51.6027 177.622C53.0236 179.043 54.949 179.844 56.9583 179.85H110.042C112.051 179.844 113.976 179.043 115.397 177.622C116.818 176.202 117.619 174.276 117.625 172.267V119.184C117.619 117.174 116.818 115.249 115.397 113.828C113.976 112.407 112.051 111.606 110.042 111.6ZM83.5 111.6C84.2499 111.6 84.983 111.823 85.6065 112.239C86.2301 112.656 86.7161 113.248 87.003 113.941C87.29 114.634 87.3651 115.396 87.2188 116.132C87.0725 116.867 86.7114 117.543 86.1811 118.073C85.6508 118.603 84.9752 118.964 84.2397 119.111C83.5042 119.257 82.7418 119.182 82.049 118.895C81.3562 118.608 80.764 118.122 80.3473 117.498C79.9307 116.875 79.7083 116.142 79.7083 115.392C79.7113 114.387 80.1118 113.425 80.8222 112.714C81.5326 112.004 82.4953 111.603 83.5 111.6ZM75.9167 130.559L86.4954 141.152L96.0504 131.597L91.0833 126.767H106.25V141.934L101.412 136.963L86.503 151.883L75.9167 141.289L66.1114 151.087L60.75 145.725L75.9167 130.559ZM110.042 168.475H56.9583V160.892H110.042V168.475Z" fill="#F1F1F1"/>
</svg>
