<svg width="279" height="167" viewBox="0 0 279 167" fill="none" xmlns="http://www.w3.org/2000/svg">
<path d="M222.474 167L278.225 83.5L222.474 0H143.628V167H222.474Z" fill="#333333"/>
<path d="M143.628 167V0H0.566299L57.791 83.5L0.566299 167H143.628Z" fill="#333333"/>
<path d="M169.042 53.1666H153.193C152.416 50.9502 150.97 49.0297 149.055 47.671C147.139 46.3124 144.849 45.5825 142.5 45.5825C140.151 45.5825 137.861 46.3124 135.945 47.671C134.03 49.0297 132.584 50.9502 131.808 53.1666H115.958C113.949 53.1726 112.024 53.9735 110.603 55.3944C109.182 56.8152 108.381 58.7406 108.375 60.75V113.833C108.381 115.843 109.182 117.768 110.603 119.189C112.024 120.61 113.949 121.411 115.958 121.417H169.042C171.051 121.411 172.976 120.61 174.397 119.189C175.818 117.768 176.619 115.843 176.625 113.833V60.75C176.619 58.7406 175.818 56.8152 174.397 55.3944C172.976 53.9735 171.051 53.1726 169.042 53.1666ZM142.5 53.1666C143.25 53.1666 143.983 53.389 144.607 53.8056C145.23 54.2223 145.716 54.8144 146.003 55.5073C146.29 56.2001 146.365 56.9625 146.219 57.698C146.073 58.4335 145.711 59.1091 145.181 59.6394C144.651 60.1697 143.975 60.5308 143.24 60.6771C142.504 60.8234 141.742 60.7483 141.049 60.4613C140.356 60.1743 139.764 59.6884 139.347 59.0648C138.931 58.4413 138.708 57.7082 138.708 56.9583C138.711 55.9536 139.112 54.9909 139.822 54.2805C140.533 53.5701 141.495 53.1696 142.5 53.1666ZM134.917 72.125L145.495 82.7189L155.05 73.1639L150.083 68.3333H165.25V83.5L160.412 78.5291L145.503 93.4493L134.917 82.8554L125.111 92.653L119.75 87.2916L134.917 72.125ZM169.042 110.042H115.958V102.458H169.042V110.042Z" fill="#F1F1F1"/>
</svg>
