<svg width="628" height="368" viewBox="0 0 628 368" fill="none" xmlns="http://www.w3.org/2000/svg">
<g clip-path="url(#clip0_1_444)">
<path d="M381.087 204.529H12.8925C9.47439 204.525 6.19736 203.162 3.78038 200.739C1.3634 198.316 0.00385508 195.03 7.15256e-06 191.603V12.9256C0.00385508 9.49872 1.3634 6.21327 3.78038 3.79009C6.19736 1.3669 9.47439 0.00385782 12.8925 0H381.087C384.505 0.00385782 387.782 1.3669 390.199 3.79009C392.616 6.21327 393.976 9.49872 393.98 12.9256V191.603C393.976 195.03 392.616 198.316 390.199 200.739C387.782 203.162 384.505 204.525 381.087 204.529ZM12.8925 1.52066C9.87652 1.52408 6.98504 2.72677 4.85241 4.86487C2.71979 7.00297 1.52018 9.90189 1.51677 12.9256V191.603C1.52018 194.627 2.71979 197.526 4.85241 199.664C6.98504 201.802 9.87652 203.005 12.8925 203.008H381.087C384.103 203.005 386.995 201.802 389.127 199.664C391.26 197.526 392.46 194.627 392.463 191.603V12.9256C392.46 9.90189 391.26 7.00297 389.127 4.86487C386.995 2.72677 384.103 1.52408 381.087 1.52066H12.8925Z" fill="#3F3D56"/>
<path d="M70.7192 44.4794C74.4888 44.4794 77.5446 41.4157 77.5446 37.6364C77.5446 33.8572 74.4888 30.7935 70.7192 30.7935C66.9496 30.7935 63.8937 33.8572 63.8937 37.6364C63.8937 41.4157 66.9496 44.4794 70.7192 44.4794Z" fill="#CCCCCC"/>
<path d="M70.7192 70.3305C74.4888 70.3305 77.5446 67.2668 77.5446 63.4875C77.5446 59.7082 74.4888 56.6445 70.7192 56.6445C66.9496 56.6445 63.8937 59.7082 63.8937 63.4875C63.8937 67.2668 66.9496 70.3305 70.7192 70.3305Z" fill="#CCCCCC"/>
<path d="M70.7192 96.1818C74.4888 96.1818 77.5446 93.1181 77.5446 89.3388C77.5446 85.5596 74.4888 82.4958 70.7192 82.4958C66.9496 82.4958 63.8937 85.5596 63.8937 89.3388C63.8937 93.1181 66.9496 96.1818 70.7192 96.1818Z" fill="#CCCCCC"/>
<path d="M70.7192 122.033C74.4888 122.033 77.5446 118.969 77.5446 115.19C77.5446 111.411 74.4888 108.347 70.7192 108.347C66.9496 108.347 63.8937 111.411 63.8937 115.19C63.8937 118.969 66.9496 122.033 70.7192 122.033Z" fill="#CCCCCC"/>
<path d="M185.614 173.736C189.384 173.736 192.44 170.672 192.44 166.893C192.44 163.113 189.384 160.05 185.614 160.05C181.845 160.05 178.789 163.113 178.789 166.893C178.789 170.672 181.845 173.736 185.614 173.736Z" fill="#CCCCCC"/>
<path d="M136.319 173.736C140.089 173.736 143.145 170.672 143.145 166.893C143.145 163.113 140.089 160.05 136.319 160.05C132.55 160.05 129.494 163.113 129.494 166.893C129.494 170.672 132.55 173.736 136.319 173.736Z" fill="#CCCCCC"/>
<path d="M287.237 173.736C291.007 173.736 294.063 170.672 294.063 166.893C294.063 163.113 291.007 160.05 287.237 160.05C283.468 160.05 280.412 163.113 280.412 166.893C280.412 170.672 283.468 173.736 287.237 173.736Z" fill="#CCCCCC"/>
<path d="M235.667 173.736C239.437 173.736 242.493 170.672 242.493 166.893C242.493 163.113 239.437 160.05 235.667 160.05C231.898 160.05 228.842 163.113 228.842 166.893C228.842 170.672 231.898 173.736 235.667 173.736Z" fill="#CCCCCC"/>
<path d="M329.328 38.3966H104.846C104.645 38.3966 104.452 38.3165 104.31 38.1739C104.168 38.0313 104.088 37.838 104.088 37.6363C104.088 37.4347 104.168 37.2413 104.31 37.0987C104.452 36.9561 104.645 36.876 104.846 36.876H329.328C329.529 36.876 329.722 36.9561 329.864 37.0987C330.006 37.2413 330.086 37.4347 330.086 37.6363C330.086 37.838 330.006 38.0313 329.864 38.1739C329.722 38.3165 329.529 38.3966 329.328 38.3966Z" fill="#CCCCCC"/>
<path d="M329.328 64.248H104.846C104.645 64.248 104.452 64.1678 104.31 64.0252C104.168 63.8827 104.088 63.6893 104.088 63.4876C104.088 63.286 104.168 63.0926 104.31 62.95C104.452 62.8074 104.645 62.7273 104.846 62.7273H329.328C329.529 62.7273 329.722 62.8074 329.864 62.95C330.006 63.0926 330.086 63.286 330.086 63.4876C330.086 63.6893 330.006 63.8827 329.864 64.0252C329.722 64.1678 329.529 64.248 329.328 64.248Z" fill="#CCCCCC"/>
<path d="M329.328 90.0993H104.846C104.645 90.0993 104.452 90.0192 104.31 89.8766C104.168 89.734 104.088 89.5406 104.088 89.3389C104.088 89.1373 104.168 88.9439 104.31 88.8013C104.452 88.6587 104.645 88.5786 104.846 88.5786H329.328C329.529 88.5786 329.722 88.6587 329.864 88.8013C330.006 88.9439 330.086 89.1373 330.086 89.3389C330.086 89.5406 330.006 89.734 329.864 89.8766C329.722 90.0192 329.529 90.0993 329.328 90.0993Z" fill="#CCCCCC"/>
<path d="M329.328 115.95H104.846C104.645 115.95 104.452 115.87 104.31 115.728C104.168 115.585 104.088 115.392 104.088 115.19C104.088 114.988 104.168 114.795 104.31 114.652C104.452 114.51 104.645 114.43 104.846 114.43H329.328C329.529 114.43 329.722 114.51 329.864 114.652C330.006 114.795 330.086 114.988 330.086 115.19C330.086 115.392 330.006 115.585 329.864 115.728C329.722 115.87 329.529 115.95 329.328 115.95Z" fill="#CCCCCC"/>
<path d="M147.316 141.802H125.323C124.317 141.8 123.354 141.4 122.643 140.687C121.932 139.974 121.532 139.008 121.531 138V117.471C121.532 116.463 121.932 115.497 122.643 114.784C123.354 114.072 124.317 113.671 125.323 113.669H147.316C148.321 113.671 149.285 114.072 149.996 114.784C150.707 115.497 151.107 116.463 151.108 117.471V138C151.107 139.008 150.707 139.974 149.996 140.687C149.285 141.4 148.321 141.8 147.316 141.802Z" fill="#007ACC"/>
<path d="M196.611 141.802H174.618C173.612 141.8 172.648 141.4 171.938 140.687C171.227 139.974 170.827 139.008 170.826 138V91.6198C170.827 90.6119 171.227 89.6456 171.938 88.9329C172.648 88.2202 173.612 87.8193 174.618 87.8181H196.611C197.616 87.8193 198.58 88.2202 199.291 88.9329C200.002 89.6456 200.401 90.6119 200.403 91.6198V138C200.401 139.008 200.002 139.974 199.291 140.687C198.58 141.4 197.616 141.8 196.611 141.802Z" fill="#007ACC"/>
<path d="M246.664 141.802H224.671C223.665 141.801 222.702 141.4 221.991 140.687C221.28 139.974 220.88 139.008 220.879 138V65.7687C220.88 64.7608 221.28 63.7945 221.991 63.0818C222.702 62.3691 223.665 61.9682 224.671 61.967H246.664C247.669 61.9682 248.633 62.3691 249.344 63.0818C250.055 63.7945 250.455 64.7608 250.456 65.7687V138C250.455 139.008 250.055 139.974 249.344 140.687C248.633 141.4 247.669 141.801 246.664 141.802Z" fill="#007ACC"/>
<path d="M298.234 141.802H276.241C275.235 141.8 274.272 141.4 273.561 140.687C272.85 139.974 272.45 139.008 272.449 138V40.6776C272.45 39.6697 272.85 38.7034 273.561 37.9907C274.272 37.278 275.235 36.8771 276.241 36.876H298.234C299.239 36.8771 300.203 37.278 300.914 37.9907C301.625 38.7034 302.025 39.6697 302.026 40.6776V138C302.025 139.008 301.625 139.974 300.914 140.687C300.203 141.4 299.239 141.8 298.234 141.802Z" fill="#007ACC"/>
<path d="M503.151 363.7C496.331 357.922 492.189 348.796 493.275 339.911C494.362 331.026 501.09 322.858 509.818 320.971C518.546 319.084 528.495 324.307 531.146 332.855C532.605 316.375 534.286 299.205 543.025 285.171C550.939 272.463 564.644 263.37 579.498 261.744C594.352 260.117 609.992 266.261 619.256 278.015C628.519 289.769 630.788 306.857 624.299 320.352C619.52 330.293 610.714 337.692 601.488 343.71C571.675 362.996 535.918 370.838 500.796 365.795L503.151 363.7Z" fill="#CCCCCC"/>
<path d="M604.567 266.601C592.31 276.61 581.066 287.804 570.998 300.021C555.24 319.075 542.489 340.439 533.188 363.367C532.507 365.04 535.216 365.768 535.889 364.114C551.107 326.851 575.4 294.007 606.548 268.587C607.946 267.446 605.954 265.469 604.567 266.601Z" fill="white"/>
<path d="M431.224 154.391C430.362 154.389 429.502 154.302 428.656 154.133C428.502 154.102 428.347 154.069 428.192 154.033L242.467 110.679C240.449 110.208 239.109 108.936 239.35 107.719C239.451 107.361 239.649 107.038 239.922 106.785C240.195 106.533 240.532 106.361 240.896 106.288C241.793 106.04 242.736 106.019 243.643 106.227L430.522 145.355C434.73 146.236 437.651 148.825 437.172 151.249C436.921 152.517 435.807 153.501 434.034 154.018C433.12 154.274 432.173 154.399 431.224 154.391Z" fill="#3F3D56"/>
<path d="M391.88 148.393C392.841 148.959 393.915 149.307 395.025 149.413C396.135 149.518 397.254 149.379 398.304 149.004C399.355 148.628 400.31 148.027 401.103 147.242C401.897 146.456 402.508 145.506 402.896 144.458L429.991 145.024L422.484 133.078L397.905 134.371C396.106 133.836 394.173 133.98 392.473 134.778C390.773 135.576 389.424 136.971 388.681 138.699C387.938 140.427 387.854 142.369 388.443 144.155C389.033 145.942 390.256 147.45 391.88 148.393Z" fill="#FFB8B8"/>
<path d="M403.649 144.054L403.508 135.727C403.498 134.868 403.809 134.036 404.379 133.395C404.95 132.754 405.74 132.35 406.593 132.264L455.282 127.553L495.848 114.218C497.072 113.816 498.364 113.661 499.649 113.764C500.933 113.866 502.185 114.224 503.33 114.816C504.475 115.407 505.492 116.221 506.321 117.211C507.15 118.2 507.774 119.344 508.158 120.577C508.541 121.811 508.677 123.108 508.556 124.394C508.435 125.68 508.06 126.93 507.453 128.069C506.846 129.209 506.02 130.216 505.021 131.033C504.022 131.849 502.872 132.458 501.636 132.825L456.735 146.154L407.147 147.416C406.398 147.435 405.663 147.205 405.056 146.764C404.449 146.322 404.004 145.693 403.789 144.973C403.701 144.674 403.654 144.365 403.649 144.054Z" fill="#3F3D56"/>
<path d="M475.702 358.71L466.404 358.709L461.981 322.755L475.703 322.756L475.702 358.71Z" fill="#FFB8B8"/>
<path d="M478.073 367.746L448.093 367.745V367.365C448.093 365.828 448.395 364.307 448.982 362.888C449.568 361.468 450.428 360.179 451.511 359.092C452.595 358.006 453.881 357.144 455.297 356.556C456.713 355.969 458.23 355.666 459.762 355.666H459.763L478.073 355.667L478.073 367.746Z" fill="#2F2E41"/>
<path d="M503.003 358.71L493.705 358.709L489.283 322.755L503.005 322.756L503.003 358.71Z" fill="#FFB8B8"/>
<path d="M505.374 367.746L475.395 367.745V367.365C475.395 365.828 475.697 364.307 476.283 362.888C476.87 361.468 477.729 360.179 478.813 359.092C479.897 358.006 481.183 357.144 482.599 356.556C484.014 355.969 485.532 355.666 487.064 355.666H487.065L505.375 355.667L505.374 367.746Z" fill="#2F2E41"/>
<path d="M509.243 213.405L507.023 345.47C507.016 345.888 506.923 346.3 506.75 346.681C506.577 347.062 506.327 347.402 506.017 347.682C505.706 347.961 505.342 348.173 504.946 348.305C504.55 348.437 504.131 348.485 503.715 348.448L492.835 347.456C492.122 347.391 491.454 347.075 490.951 346.563C490.448 346.052 490.141 345.378 490.086 344.662L483.716 262.284C483.701 262.09 483.613 261.91 483.47 261.78C483.326 261.649 483.138 261.579 482.945 261.582C482.751 261.586 482.567 261.664 482.429 261.8C482.29 261.936 482.209 262.12 482.202 262.314L479.018 346.578C478.989 347.364 478.656 348.108 478.091 348.654C477.526 349.199 476.772 349.504 475.987 349.504H464.319C463.546 349.504 462.803 349.209 462.24 348.678C461.678 348.147 461.338 347.422 461.291 346.648L453.123 212.645L501.659 200.479L509.243 213.405Z" fill="#2F2E41"/>
<path d="M474.038 89.3978C484.325 89.3978 492.665 81.037 492.665 70.7233C492.665 60.4097 484.325 52.0488 474.038 52.0488C463.751 52.0488 455.411 60.4097 455.411 70.7233C455.411 81.037 463.751 89.3978 474.038 89.3978Z" fill="#FFB8B8"/>
<path d="M451.461 217.334C451.138 217.021 450.88 216.647 450.703 216.234C450.525 215.821 450.431 215.377 450.426 214.927L449.17 124.872C449.094 120.291 450.469 115.803 453.096 112.055C455.723 108.306 459.468 105.489 463.793 104.007C465.538 96.0697 474.826 95.0755 480.24 95.1943C481.591 95.2235 482.916 95.5789 484.101 96.2305C485.286 96.8821 486.297 97.8106 487.048 98.9373L490.93 104.774L499.485 109.802C503.444 112.118 506.566 115.636 508.403 119.847C510.239 124.059 510.693 128.746 509.7 133.232L508.383 139.239C503.745 160.497 504.186 182.553 509.671 203.608L512.321 213.739C512.459 214.267 512.469 214.82 512.351 215.352C512.232 215.884 511.989 216.381 511.64 216.8C511.291 217.218 510.848 217.547 510.347 217.759C509.845 217.971 509.301 218.06 508.758 218.018L505.68 217.781C504.881 217.72 504.129 217.379 503.556 216.817C502.983 216.256 502.625 215.51 502.546 214.71L502.037 209.603C502.027 209.509 501.984 209.423 501.914 209.359C501.844 209.296 501.753 209.261 501.659 209.261C501.565 209.261 501.475 209.296 501.405 209.359C501.335 209.423 501.291 209.509 501.282 209.603L500.789 214.548C500.706 215.383 500.319 216.158 499.703 216.726C499.086 217.295 498.283 217.615 497.446 217.628L453.891 218.3C453.873 218.3 453.855 218.301 453.837 218.301C452.949 218.303 452.096 217.955 451.461 217.334Z" fill="#3F3D56"/>
<path d="M475.495 81.4876C475.572 84.1274 477.4 85.6547 479.644 87.0374C481.888 88.4201 484.512 89.0197 487.082 89.598C487.427 89.7818 487.814 89.8733 488.205 89.8637C488.595 89.8541 488.977 89.7437 489.313 89.5431C489.649 89.3426 489.927 89.0586 490.122 88.7187C490.316 88.3787 490.42 87.9943 490.423 87.6025L492.78 78.6129C493.614 75.7413 494.221 72.8082 494.595 69.8409C495.163 64.1315 493.813 57.9896 489.838 53.8616C485.864 49.7335 478.97 48.2671 474.207 51.4477C468.554 44.2095 442.716 60.2014 449.09 65.2346C450.224 66.1301 451.957 64.997 453.396 64.8872C454.836 64.7774 456.449 65.0312 457.363 66.151C458.557 67.6141 458.037 69.7934 458.529 71.6185C458.733 72.2607 459.061 72.8561 459.495 73.3704C459.93 73.8847 460.461 74.3077 461.059 74.615C461.657 74.9224 462.31 75.108 462.98 75.1611C463.65 75.2142 464.324 75.1339 464.963 74.9247C466.153 74.3368 467.272 73.6153 468.3 72.774C469.404 72.0368 470.799 71.4921 472.041 71.957C473.679 72.5699 474.261 74.5805 474.409 76.3271C474.659 78.0691 475.022 79.7929 475.495 81.4876Z" fill="#2F2E41"/>
<path d="M613.479 368H324.535C324.334 368 324.141 367.92 323.999 367.777C323.857 367.635 323.777 367.441 323.777 367.24C323.777 367.038 323.857 366.845 323.999 366.702C324.141 366.56 324.334 366.479 324.535 366.479H613.479C613.68 366.479 613.873 366.56 614.015 366.702C614.158 366.845 614.238 367.038 614.238 367.24C614.238 367.441 614.158 367.635 614.015 367.777C613.873 367.92 613.68 368 613.479 368Z" fill="#3F3D56"/>
<path opacity="0.2" d="M471.145 131.537L468.112 168.793L452.186 207.57L475.695 169.554L471.145 131.537Z" fill="black"/>
<path d="M448.462 222.011C449.331 221.311 450.037 220.428 450.529 219.426C451.021 218.423 451.288 217.324 451.311 216.206C451.334 215.089 451.113 213.98 450.662 212.958C450.211 211.935 449.542 211.024 448.702 210.289L458.848 185.095L445.044 187.89L437.526 211.386C436.387 212.883 435.836 214.746 435.976 216.622C436.117 218.499 436.939 220.259 438.287 221.568C439.635 222.878 441.415 223.646 443.29 223.728C445.166 223.809 447.006 223.198 448.462 222.011Z" fill="#FFB8B8"/>
<path d="M447.723 210.899L439.909 208.076C439.104 207.78 438.438 207.194 438.043 206.431C437.648 205.668 437.552 204.785 437.774 203.955L450.664 156.648L452.629 113.892C452.689 112.602 453.003 111.336 453.555 110.168C454.106 109.001 454.884 107.955 455.842 107.091C456.801 106.228 457.921 105.564 459.137 105.138C460.354 104.712 461.643 104.533 462.929 104.612C464.215 104.69 465.473 105.024 466.63 105.593C467.786 106.163 468.818 106.958 469.665 107.931C470.512 108.905 471.158 110.037 471.565 111.263C471.972 112.489 472.132 113.784 472.035 115.072L468.525 161.888L452.1 208.814C451.851 209.523 451.376 210.13 450.749 210.542C450.122 210.955 449.378 211.149 448.63 211.095C448.32 211.071 448.015 211.005 447.723 210.899Z" fill="#3F3D56"/>
<path d="M329.328 141.802H104.846C104.645 141.802 104.452 141.722 104.31 141.579C104.168 141.436 104.088 141.243 104.088 141.041C104.088 140.84 104.168 140.646 104.31 140.504C104.452 140.361 104.645 140.281 104.846 140.281H329.328C329.529 140.281 329.722 140.361 329.864 140.504C330.006 140.646 330.086 140.84 330.086 141.041C330.086 141.243 330.006 141.436 329.864 141.579C329.722 141.722 329.529 141.802 329.328 141.802Z" fill="#3F3D56"/>
</g>
<defs>
<clipPath id="clip0_1_444">
<rect width="628" height="368" fill="white"/>
</clipPath>
</defs>
</svg>
